<svg width="48" height="49" viewBox="0 0 48 49" fill="none" xmlns="http://www.w3.org/2000/svg">
<path d="M40.5059 26.7216L16.5713 47.6736C15.9239 48.2464 15.2108 48.5 14.5071 48.5C13.8886 48.5 13.2696 48.3107 12.7423 47.9263C11.608 47.1016 11.1942 45.601 11.7487 44.3106L18.9638 27.4635H8.50333C7.25171 27.4635 6.13145 26.6872 5.69142 25.5148C5.25166 24.3437 5.58586 23.0214 6.52701 22.1969L30.4616 1.24494C31.5171 0.316139 33.0708 0.25134 34.2024 1.07599C35.3367 1.90064 35.7505 3.40127 35.196 4.69163L27.9827 21.5396L38.4442 21.5389C39.6958 21.5389 40.816 22.3152 41.2561 23.4876C41.7725 24.571 41.4441 25.8952 40.5059 26.7216Z" fill="url(#paint0_linear_2758_7903)"/>
<defs>
<linearGradient id="paint0_linear_2758_7903" x1="5.5" y1="24.5" x2="41.5" y2="24.5" gradientUnits="userSpaceOnUse">
<stop stop-color="white"/>
<stop offset="1" stop-color="#FEFEFE"/>
</linearGradient>
</defs>
</svg>
