<svg width="512" height="512" viewBox="0 0 512 512" fill="none" xmlns="http://www.w3.org/2000/svg">
<path d="M476.1 265.901C523.967 218.088 523.967 140.656 476.1 92.8431C433.741 50.5306 366.982 45.0299 318.269 79.8108L316.913 80.7417C304.713 89.4581 301.918 106.383 310.644 118.484C319.37 130.586 336.314 133.463 348.429 124.747L349.784 123.816C376.979 104.437 414.171 107.483 437.723 131.094C464.409 157.75 464.409 200.909 437.723 227.566L342.668 322.684C315.981 349.341 272.774 349.341 246.088 322.684C222.451 299.074 219.401 261.924 238.802 234.844L239.734 233.49C248.46 221.304 245.58 204.379 233.465 195.747C221.35 187.115 204.321 189.908 195.68 202.009L194.748 203.363C159.844 251.938 165.351 318.622 207.71 360.935C255.576 408.748 333.094 408.748 380.961 360.935L476.1 265.901ZM35.8997 246.099C-11.9666 293.912 -11.9666 371.344 35.8997 419.157C78.2593 461.469 145.018 466.97 193.731 432.189L195.087 431.258C207.287 422.542 210.082 405.617 201.356 393.516C192.63 381.414 175.686 378.537 163.571 387.253L162.216 388.184C135.021 407.563 97.8294 404.517 74.2775 380.906C47.591 354.165 47.591 311.006 74.2775 284.349L169.332 189.316C196.019 162.659 239.226 162.659 265.912 189.316C289.549 212.926 292.599 250.076 273.198 277.241L272.266 278.595C263.54 290.781 266.42 307.706 278.535 316.338C290.65 324.969 307.679 322.177 316.32 310.075L317.252 308.721C352.156 260.062 346.649 193.378 304.29 151.065C256.424 103.252 178.906 103.252 131.039 151.065L35.8997 246.099Z" fill="white"/>
</svg>
