<svg width="640" height="512" viewBox="0 0 640 512" fill="none" xmlns="http://www.w3.org/2000/svg">
<g clip-path="url(#clip0_68_212)">
<path d="M256 64H384V128H256V64ZM240 0C213.5 0 192 21.5 192 48V144C192 170.5 213.5 192 240 192H288V224H32C14.3 224 0 238.3 0 256C0 273.7 14.3 288 32 288H128V320H80C53.5 320 32 341.5 32 368V464C32 490.5 53.5 512 80 512H240C266.5 512 288 490.5 288 464V368C288 341.5 266.5 320 240 320H192V288H448V320H400C373.5 320 352 341.5 352 368V464C352 490.5 373.5 512 400 512H560C586.5 512 608 490.5 608 464V368C608 341.5 586.5 320 560 320H512V288H608C625.7 288 640 273.7 640 256C640 238.3 625.7 224 608 224H352V192H400C426.5 192 448 170.5 448 144V48C448 21.5 426.5 0 400 0H240ZM96 448V384H224V448H96ZM416 384H544V448H416V384Z" fill="white"/>
</g>
<defs>
<clipPath id="clip0_68_212">
<rect width="640" height="512" fill="white"/>
</clipPath>
</defs>
</svg>
