<svg width="663" height="422" viewBox="0 0 663 422" fill="none" xmlns="http://www.w3.org/2000/svg">
<mask id="mask0_2152_10587" style="mask-type:luminance" maskUnits="userSpaceOnUse" x="0" y="0" width="663" height="422">
<path d="M663 0.546875H0V421.547H663V0.546875Z" fill="white"/>
</mask>
<g mask="url(#mask0_2152_10587)">
<path d="M663 1H0V422H663V1Z" fill="url(#paint0_linear_2152_10587)"/>
<path d="M7.38913 335.104C4.9735 334.676 2.59846 334.269 0.203125 333.903V331.42C2.74056 331.807 5.27799 332.255 7.79512 332.702C30.835 336.67 52.596 340.435 76.0216 321.653C99.4674 302.891 100.605 280.772 101.823 257.371C103.02 234.458 104.238 210.751 128.537 191.277C152.835 171.803 176.159 175.832 198.732 179.739C221.772 183.707 243.533 187.492 266.959 168.731C290.384 149.969 291.541 127.829 292.759 104.448C293.957 81.5347 295.154 57.8283 319.473 38.3543C343.772 18.9007 367.096 22.9094 389.648 26.8164C412.688 30.7845 434.449 34.5694 457.875 15.8076C463.924 10.9646 468.471 5.918 471.922 0.667969H474.805C471.13 6.60986 466.157 12.328 459.438 17.7408C435.139 37.1944 411.815 33.145 389.242 29.2787C366.203 25.2699 344.442 21.5257 321.016 40.2875C297.57 59.0492 296.433 81.1684 295.215 104.57C294.018 127.483 292.8 151.19 268.501 170.664C244.203 190.117 220.899 186.109 198.326 182.202C175.286 178.193 153.505 174.449 130.059 193.21C106.613 211.972 105.476 234.091 104.258 257.493C103.061 280.406 101.863 304.112 77.544 323.586C53.2659 343.04 29.9418 339.011 7.38913 335.104Z" fill="url(#paint1_linear_2152_10587)"/>
<path d="M510.734 65.6835L510.835 65.0527H524.009C525.796 65.1341 527.237 65.6835 527.724 67.5963L530.607 81.4133C527.785 74.1691 520.985 68.1661 510.734 65.6835Z" fill="url(#paint2_linear_2152_10587)"/>
<path d="M530.954 83.4516L531.848 86.687L540.17 65.3613H549.163L535.786 96.5359H526.813L519.201 70.4893C524.662 74.0096 529.31 79.5649 530.954 83.4516Z" fill="url(#paint3_linear_2152_10587)"/>
<path d="M564.628 75.0639C564.669 68.9999 570.597 64.7266 578.98 64.7266C582.269 64.7266 584.928 65.4185 586.592 66.0493L585.435 72.8052L584.664 72.4592C583.081 71.8284 581.071 71.2383 578.29 71.2586C574.981 71.2586 573.418 72.6627 573.418 73.9651C573.398 75.4098 575.245 76.3866 578.209 77.8314C583.101 80.0697 585.374 82.7558 585.314 86.3372C585.273 92.8286 579.467 97.0204 570.556 97.0204C566.74 96.9797 563.086 96.2065 561.096 95.3518L562.294 88.3518L563.37 88.8401C566.151 90 567.978 90.4884 571.368 90.4884C573.804 90.4884 576.422 89.532 576.463 87.4361C576.483 86.0523 575.347 85.0756 572.058 83.5494C568.83 82.064 564.588 79.5407 564.628 75.0639Z" fill="url(#paint4_linear_2152_10587)"/>
<path d="M584.787 96.5314L597.373 67.8597C598.266 65.8452 599.809 65.2754 601.839 65.2754H608.395L615.297 96.5111H607.401C607.401 96.5111 606.629 92.9297 606.365 91.8512H595.485C595.16 92.6651 593.698 96.5111 593.698 96.5111L584.787 96.5314Z" fill="url(#paint5_linear_2152_10587)"/>
<path d="M657.195 20.0211C660.321 25.6578 662.067 32.1695 662.067 39.0678L662.108 84.2628C661.418 90.0826 661.113 95.9228 660.809 101.702C659.591 125.123 658.454 147.222 635.008 165.984C611.562 184.746 589.801 180.981 566.782 176.993C544.229 173.086 520.905 169.057 496.606 188.531C472.288 207.984 471.07 231.691 469.892 254.624C468.674 278.005 467.538 300.145 444.092 318.907C420.646 337.668 398.885 333.904 375.865 329.915C353.292 326.008 329.968 321.979 305.67 341.453C281.371 360.907 280.133 384.613 278.956 407.547C278.733 411.779 278.53 415.992 278.144 420.143L144.777 420.244C146.157 419.308 147.558 418.271 148.938 417.151C173.257 397.698 174.475 373.991 175.652 351.058C176.87 327.636 178.007 305.537 201.453 286.776C224.898 268.014 246.68 271.758 269.72 275.767C292.293 279.674 315.596 283.703 339.895 264.229C364.193 244.775 365.431 221.069 366.609 198.136C367.827 174.714 368.964 152.615 392.409 133.853C415.855 115.091 437.616 118.836 460.636 122.844C483.209 126.731 506.533 130.78 530.831 111.307C538.971 104.774 544.533 97.7745 548.35 90.4693L547.314 96.5332H555.8L561.118 65.2976H555.921C556.855 58.6231 557.2 51.8876 557.525 45.2132C558.317 29.5445 559.129 14.4659 566.599 0.587891H563.879C556.652 14.8118 555.861 30.1142 555.089 45.0911C554.724 51.969 554.379 58.7249 553.465 65.2976H552.633L550.055 80.4779C546.563 90.7134 540.474 100.42 529.309 109.373C505.863 128.135 484.102 124.371 461.082 120.382C438.53 116.475 415.206 112.446 390.907 131.92C366.589 151.374 365.371 175.08 364.193 198.013C362.975 221.394 361.838 243.534 338.393 262.296C314.947 281.058 293.186 277.293 270.166 273.305C247.593 269.398 224.269 265.369 199.971 284.842C175.672 304.316 174.373 328.043 173.196 350.956C171.978 374.378 170.841 396.477 147.395 415.239C145.02 417.131 142.686 418.82 140.311 420.244L39.2192 420.326C24.8472 420.346 12.2413 412.675 5.29883 401.218C12.0992 413.367 25.0502 421.567 39.9094 421.547L623.376 421.119C645.28 421.099 663.021 403.273 663.001 381.337L662.757 40.248C662.757 32.841 660.748 25.9223 657.195 20.0211ZM662.331 380.116C662.351 402.073 644.589 419.878 622.707 419.899L356.013 420.082C356.134 419.96 356.276 419.858 356.439 419.736C379.885 400.974 401.666 404.718 424.706 408.727C447.279 412.634 470.583 416.663 494.881 397.189C519.179 377.736 520.418 354.029 521.595 331.096C522.813 307.674 523.95 285.575 547.396 266.813C570.842 248.052 592.603 251.796 615.622 255.805C630.826 258.409 646.335 261.095 662.25 256.639L662.331 380.116ZM662.23 254.156C646.802 258.694 631.699 256.069 616.008 253.383C593.455 249.476 570.131 245.447 545.833 264.921C521.514 284.374 520.296 308.081 519.119 331.014C517.901 354.395 516.764 376.535 493.318 395.297C469.872 414.058 448.111 410.294 425.092 406.305C402.519 402.398 379.195 398.369 354.896 417.843C353.962 418.576 353.049 419.349 352.196 420.122L280.641 420.183C280.986 416.012 281.209 411.861 281.412 407.71C282.63 384.288 283.767 362.189 307.213 343.427C330.659 324.665 352.42 328.41 375.48 332.418C398.053 336.325 421.356 340.354 445.655 320.88C469.953 301.427 471.192 277.72 472.369 254.787C473.587 231.365 474.724 209.266 498.17 190.505C521.615 171.743 543.376 175.487 566.396 179.496C588.969 183.383 612.293 187.432 636.591 167.958C655.165 153.083 660.24 135.725 662.148 118.164L662.23 254.156Z" fill="url(#paint6_linear_2152_10587)"/>
<path d="M200.071 0.855469C199.726 5.027 199.503 9.17819 199.3 13.3294C198.082 36.7104 196.945 58.85 173.499 77.6118C154.134 93.0973 135.945 93.2398 117.209 90.5741L117.189 67.539C117.189 63.2454 113.697 59.7861 109.434 59.7861L59.5383 59.8268C55.2551 59.8268 51.7636 63.3065 51.7839 67.6001L51.8042 90.1671C46.2827 92.4462 40.7004 95.6613 35.0775 100.179C10.779 119.633 9.54076 143.339 8.34309 166.252C7.57171 181.31 6.82063 195.86 0.121814 209.29L1.73823e-05 40.7395C-0.0202821 18.8236 17.7417 0.977563 39.6245 0.977563L200.071 0.855469Z" fill="url(#paint7_linear_2152_10587)"/>
<path d="M10.7986 166.373C9.94603 182.53 9.09345 199.135 0.121094 214.315V209.289C6.81991 195.859 7.57099 181.309 8.34237 166.251C9.54004 143.338 10.7783 119.631 35.0767 100.157C40.6996 95.6398 46.282 92.4043 51.8034 90.1456L51.7831 67.5786C51.7831 63.2849 55.2746 59.8053 59.5375 59.8053L109.433 59.7646C113.696 59.7646 117.188 63.2239 117.188 67.5175L117.208 90.5526C135.944 93.2183 154.133 93.0962 173.498 77.5903C196.944 58.8285 198.081 36.6888 199.299 13.3079C199.522 9.17706 199.745 5.00552 200.07 0.833984H202.547C202.181 4.96482 201.958 9.19741 201.735 13.43C200.578 36.3633 199.339 60.0698 175.041 79.5234C155.147 95.4566 135.924 95.6398 117.228 93.0351V103.739C117.228 108.012 113.737 111.512 109.494 111.512L59.5984 111.553C55.3152 111.553 51.8237 108.053 51.8237 103.8V92.7299C46.8098 94.9276 41.7552 97.9596 36.6195 102.091C13.1533 120.852 12.0165 142.951 10.7986 166.373Z" fill="url(#paint8_linear_2152_10587)"/>
<path d="M471.963 0.648438C468.492 5.89847 463.965 10.945 457.916 15.7881C434.47 34.5498 412.709 30.7853 389.69 26.7969C367.137 22.8899 343.813 18.8608 319.515 38.3347C295.196 57.7883 293.978 81.4949 292.801 104.428C291.583 127.809 290.446 149.948 267 168.71C243.554 187.472 221.793 183.707 198.773 179.719C176.201 175.812 152.876 171.783 128.578 191.257C104.28 210.731 103.041 234.417 101.864 257.35C100.646 280.772 99.5095 302.871 76.0637 321.633C52.6178 340.394 30.8568 336.65 7.83726 332.682C5.29983 332.234 2.7624 331.807 0.24526 331.4L0.164062 214.292C9.15672 199.111 10.0093 182.527 10.8416 166.35C12.0595 142.928 13.1963 120.829 36.6421 102.067C41.7779 97.9572 46.8325 94.9049 51.8464 92.7072V103.777C51.8464 108.05 55.3379 111.53 59.6211 111.53L109.517 111.489C113.78 111.489 117.251 107.989 117.251 103.716V93.0124C135.926 95.6171 155.17 95.4339 175.064 79.5007C199.342 60.0674 200.58 36.3609 201.758 13.4479C201.981 9.21535 202.184 5.00311 202.569 0.851927L471.963 0.648438Z" fill="url(#paint9_linear_2152_10587)"/>
<path d="M474.846 0.648938C471.172 6.59084 466.199 12.3089 459.48 17.7217C435.181 37.1753 411.857 33.1259 389.284 29.2596C366.244 25.2508 344.483 21.5066 321.058 40.2684C297.612 59.0301 296.475 81.1494 295.257 104.551C294.059 127.464 292.841 151.17 268.543 170.644C244.245 190.098 220.941 186.089 198.368 182.182C175.328 178.173 153.547 174.429 130.101 193.191C106.655 211.952 105.518 234.072 104.3 257.473C103.103 280.386 101.905 304.093 77.5857 323.567C53.2873 343.02 29.9633 339.011 7.41062 335.104C4.99498 334.677 2.61995 334.27 0.224609 333.904L0.265208 381.826C0.265208 388.643 1.99067 395.073 5.05588 400.689C5.15738 400.893 5.21828 401.055 5.36037 401.198C12.3027 412.654 24.8884 420.306 39.2807 420.306L140.372 420.224C142.727 418.8 145.062 417.111 147.457 415.218C170.903 396.457 172.04 374.337 173.257 350.936C174.455 328.023 175.672 304.316 199.971 284.842C224.269 265.369 247.593 269.398 270.166 273.305C293.206 277.273 314.967 281.058 338.393 262.296C361.818 243.534 362.975 221.394 364.193 198.013C365.391 175.101 366.589 151.394 390.907 131.92C415.206 112.466 438.53 116.475 461.082 120.382C484.122 124.35 505.883 128.135 529.309 109.373C540.494 100.42 546.584 90.7134 550.055 80.4779L552.633 65.2976H553.465C554.399 58.7249 554.744 51.969 555.089 45.0911C555.861 30.1142 556.673 14.8118 563.879 0.587891L474.846 0.648938ZM510.837 65.0538H524.011C525.798 65.1352 527.239 65.6846 527.726 67.5974L530.609 81.4144C527.767 74.1905 520.987 68.1871 510.736 65.7046L510.837 65.0538ZM535.785 96.5129H526.813L519.201 70.4662C524.661 73.9866 529.31 79.5622 530.954 83.4285L531.847 86.664L540.17 65.3383H549.163L535.785 96.5129Z" fill="url(#paint10_linear_2152_10587)"/>
<path d="M510.734 65.6835L510.835 65.0527H524.009C525.796 65.1341 527.237 65.6835 527.724 67.5963L530.607 81.4133C527.785 74.1691 520.985 68.1661 510.734 65.6835Z" fill="url(#paint11_linear_2152_10587)"/>
<path d="M530.954 83.4516L531.848 86.687L540.17 65.3613H549.163L535.786 96.5359H526.813L519.201 70.4893C524.662 74.0096 529.31 79.5649 530.954 83.4516Z" fill="url(#paint12_linear_2152_10587)"/>
<path d="M657.192 20.0208C654.045 14.6487 649.66 10.1516 644.403 6.79401C638.252 2.82596 630.924 0.546875 623.088 0.546875L566.595 0.587573C559.125 14.4656 558.333 29.5442 557.521 45.2129C557.176 51.8873 556.851 58.6228 555.918 65.2973H561.114L555.796 96.5329H547.311L548.346 90.4689C544.55 97.7742 538.968 104.774 530.827 111.306C506.529 130.76 483.205 126.71 460.632 122.844C437.592 118.835 415.831 115.091 392.406 133.853C368.96 152.615 367.823 174.734 366.605 198.135C365.407 221.048 364.189 244.755 339.891 264.229C315.592 283.682 292.289 279.674 269.716 275.767C246.676 271.758 224.895 268.014 201.449 286.775C178.003 305.537 176.866 327.656 175.648 351.058C174.45 373.971 173.253 397.677 148.934 417.151C147.554 418.27 146.153 419.288 144.773 420.244L278.14 420.143C278.505 416.012 278.729 411.779 278.952 407.546C280.15 384.634 281.368 360.927 305.666 341.453C329.964 321.999 353.289 326.008 375.862 329.915C398.901 333.883 420.662 337.668 444.088 318.906C467.514 300.145 468.671 278.005 469.889 254.624C471.086 231.711 472.284 208.005 496.603 188.531C520.901 169.077 544.225 173.086 566.778 176.993C589.818 180.961 611.579 184.746 635.004 165.984C658.45 147.222 659.587 125.103 660.805 101.702C661.089 95.9021 661.414 90.062 662.104 84.2625L662.063 39.0675C662.063 32.1692 660.318 25.6575 657.192 20.0208ZM570.594 97.0213C566.778 96.9806 563.124 96.2074 561.134 95.3527L562.332 88.3527L563.408 88.841C566.189 90.0009 568.016 90.4893 571.406 90.4893C573.842 90.4893 576.461 89.5329 576.501 87.437C576.521 86.0532 575.385 85.0765 572.096 83.5503C568.848 82.0648 564.585 79.5619 564.646 75.0851C564.687 69.0211 570.614 64.7479 578.998 64.7479C582.287 64.7479 584.946 65.4397 586.61 66.0705L585.453 72.8264L584.682 72.4805C583.098 71.8496 581.089 71.2595 578.308 71.2799C574.999 71.2799 573.436 72.684 573.436 73.9863C573.416 75.4311 575.263 76.4078 578.227 77.8526C583.119 80.091 585.392 82.777 585.331 86.3585C585.311 92.8091 579.506 97.001 570.594 97.0213ZM607.417 96.5126C607.417 96.5126 606.646 92.9312 606.382 91.8527H595.501C595.177 92.6666 593.715 96.5126 593.715 96.5126H584.783L597.369 67.8409C598.262 65.8263 599.805 65.2566 601.835 65.2566H608.392L615.293 96.4922L607.417 96.5126Z" fill="url(#paint13_linear_2152_10587)"/>
<path d="M564.628 75.0639C564.669 68.9999 570.597 64.7266 578.98 64.7266C582.269 64.7266 584.928 65.4185 586.592 66.0493L585.435 72.8052L584.664 72.4592C583.081 71.8284 581.071 71.2383 578.29 71.2586C574.981 71.2586 573.418 72.6627 573.418 73.9651C573.398 75.4098 575.245 76.3866 578.209 77.8314C583.101 80.0697 585.374 82.7558 585.314 86.3372C585.273 92.8286 579.467 97.0204 570.556 97.0204C566.74 96.9797 563.086 96.2065 561.096 95.3518L562.294 88.3518L563.37 88.8401C566.151 90 567.978 90.4884 571.368 90.4884C573.804 90.4884 576.422 89.532 576.463 87.4361C576.483 86.0523 575.347 85.0756 572.058 83.5494C568.83 82.064 564.588 79.5407 564.628 75.0639Z" fill="url(#paint14_linear_2152_10587)"/>
<path d="M584.787 96.5314L597.373 67.8597C598.266 65.8452 599.809 65.2754 601.839 65.2754H608.395L615.297 96.5111H607.401C607.401 96.5111 606.629 92.9297 606.365 91.8512H595.485C595.16 92.6651 593.698 96.5111 593.698 96.5111L584.787 96.5314Z" fill="url(#paint15_linear_2152_10587)"/>
<path d="M662.129 118.123L662.23 254.155C646.802 258.693 631.699 256.068 616.008 253.382C593.455 249.475 570.131 245.446 545.833 264.92C521.514 284.373 520.296 308.08 519.119 331.013C517.901 354.394 516.764 376.534 493.318 395.296C469.872 414.057 448.111 410.293 425.092 406.304C402.519 402.397 379.195 398.368 354.896 417.842C353.962 418.575 353.049 419.348 352.196 420.121L280.641 420.182C280.986 416.011 281.209 411.86 281.412 407.709C282.63 384.287 283.767 362.188 307.213 343.426C330.659 324.664 352.42 328.409 375.48 332.417C398.053 336.324 421.356 340.353 445.655 320.879C469.953 301.426 471.192 277.719 472.369 254.786C473.587 231.364 474.724 209.265 498.17 190.504C521.615 171.742 543.376 175.486 566.396 179.495C588.969 183.382 612.293 187.431 636.591 167.957C655.145 153.041 660.221 135.684 662.129 118.123Z" fill="url(#paint16_linear_2152_10587)"/>
<path d="M662.231 256.639L662.312 380.116C662.333 402.073 644.571 419.878 622.688 419.898L355.994 420.081C356.116 419.959 356.258 419.858 356.42 419.735C379.866 400.974 401.647 404.718 424.687 408.727C447.26 412.634 470.564 416.663 494.862 397.189C519.161 377.735 520.399 354.029 521.577 331.095C522.794 307.674 523.931 285.575 547.377 266.813C570.823 248.051 592.584 251.795 615.604 255.804C630.787 258.409 646.317 261.115 662.231 256.639Z" fill="url(#paint17_linear_2152_10587)"/>
<path d="M117.388 68.1807L117.408 104.402C117.408 108.675 113.917 112.175 109.674 112.175L59.7782 112.216C55.495 112.216 52.0035 108.716 52.0035 104.463L51.9629 68.2417C51.9629 63.9481 55.4544 60.4684 59.7173 60.4684L109.633 60.4277C113.896 60.4277 117.388 63.8871 117.388 68.1807Z" fill="#F6C859"/>
<path d="M77.1959 105.293C76.9117 105.293 76.6478 105.15 76.526 104.886C76.3433 104.519 76.4854 104.051 76.8508 103.868C77.947 103.298 79.4288 102.24 80.3017 100.429C81.3979 98.1092 81.1137 95.586 80.6468 95.3621C80.525 95.3011 80.0784 95.5452 79.7942 95.6877C79.0837 96.054 78.0891 96.5627 76.9523 96.1557C75.8358 95.7691 75.2877 94.772 75.0238 94.2836C73.2984 91.1295 72.7706 82.9492 74.5773 78.8794C75.1862 77.5364 75.9982 76.7225 77.0132 76.4783C78.0485 76.2341 78.901 76.6614 79.5709 77.0277C80.119 77.3126 80.4032 77.4347 80.5859 77.3329C81.2964 76.9056 81.2761 74.3008 80.2814 72.2456C79.4085 70.4142 77.9267 69.3561 76.8305 68.8067C76.4651 68.6236 76.3027 68.1555 76.5057 67.7893C76.6884 67.423 77.1553 67.2602 77.5207 67.4637C78.8198 68.1352 80.6062 69.3967 81.6415 71.6149C82.6767 73.7922 83.1639 77.5568 81.3573 78.6556C80.4438 79.205 79.5709 78.7574 78.8807 78.4114C78.353 78.1469 77.8455 77.8824 77.3583 78.0044C76.6884 78.1672 76.2418 78.9201 75.9576 79.5306C74.3743 83.0917 74.8411 90.8242 76.3433 93.5917C76.6072 94.0597 76.9117 94.5685 77.4395 94.7516C77.947 94.9348 78.4342 94.711 79.104 94.365C79.7739 94.0191 80.5047 93.6528 81.2964 94.0191C83.0015 94.8534 82.8797 98.4957 81.6618 101.101C80.6062 103.319 78.8401 104.58 77.541 105.252C77.4192 105.272 77.2974 105.293 77.1959 105.293Z" fill="#7D662D"/>
<path d="M74.9032 80.246H61.2822C60.856 80.246 60.5312 79.9001 60.5312 79.4931C60.5312 79.0861 60.8561 78.7402 61.262 78.7402H74.883C75.3093 78.7402 75.6341 79.0861 75.6341 79.4931C75.6544 79.9001 75.3295 80.246 74.9032 80.246Z" fill="#7D662D"/>
<path d="M74.9032 93.9179H61.2822C60.856 93.9179 60.5312 93.572 60.5312 93.165C60.5312 92.7377 60.8763 92.4121 61.2822 92.4121H74.9032C75.3295 92.4121 75.6543 92.758 75.6543 93.165C75.6746 93.572 75.3295 93.9179 74.9032 93.9179Z" fill="#7D662D"/>
<path d="M93.0906 105.274C92.9688 105.274 92.847 105.254 92.7455 105.193C91.4464 104.522 89.66 103.26 88.6247 101.042C87.3865 98.4367 87.285 94.7942 88.9698 93.9599C89.7615 93.5733 90.5126 93.9599 91.1622 94.2855C91.8523 94.6314 92.3395 94.8553 92.8267 94.6721C93.3951 94.4686 93.7199 93.8785 93.9229 93.5122C95.425 90.7448 95.8716 82.9918 94.2883 79.4511C94.0041 78.8406 93.5575 78.0674 92.8876 77.9249C92.4816 77.8232 92.2177 77.4162 92.3192 77.0092C92.4207 76.6022 92.8267 76.358 93.2327 76.4394C94.2477 76.6836 95.0597 77.4772 95.6686 78.8203C97.4956 82.8901 96.9678 91.0907 95.2424 94.2244C94.9785 94.7128 94.4304 95.7099 93.3139 96.0965C92.1771 96.5035 91.1825 95.9948 90.472 95.6285C90.1878 95.4861 89.7412 95.2622 89.6194 95.3029C89.1728 95.5268 88.8683 98.05 89.9848 100.37C90.8577 102.202 92.3395 103.26 93.4357 103.809C93.8011 103.992 93.9635 104.46 93.7605 104.827C93.6387 105.132 93.3748 105.274 93.0906 105.274Z" fill="#7D662D"/>
<path d="M90.0457 77.1921C89.7209 77.1921 89.4366 76.9887 89.3351 76.6834C87.7111 71.7997 91.5071 68.0351 92.7251 67.4246C93.0905 67.2211 93.5574 67.3839 93.7401 67.7502C93.9228 68.1165 93.7807 68.5845 93.4153 68.7677C92.8672 69.0525 89.3757 72.0439 90.7561 76.195C90.8981 76.602 90.6749 77.0293 90.2689 77.1514C90.208 77.1921 90.1269 77.1921 90.0457 77.1921Z" fill="#7D662D"/>
<path d="M108.987 80.2265H95.3663C94.94 80.2265 94.6152 79.8806 94.6152 79.4736C94.6152 79.0666 94.9603 78.7207 95.3663 78.7207H108.987C109.414 78.7207 109.739 79.0666 109.739 79.4736C109.739 79.8806 109.393 80.2265 108.987 80.2265Z" fill="#7D662D"/>
<path d="M108.987 93.875H95.3663C94.94 93.875 94.6152 93.529 94.6152 93.1221C94.6152 92.6947 94.9603 92.3691 95.3663 92.3691H108.987C109.414 92.3691 109.739 92.7151 109.739 93.1221C109.739 93.5494 109.414 93.875 108.987 93.875Z" fill="#7D662D"/>
<path d="M608.568 65.9453H602.011C599.961 65.9453 598.418 66.515 597.545 68.5296L584.959 97.2013H593.891C593.891 97.2013 595.373 93.3553 595.677 92.5414H606.558C606.822 93.6199 607.593 97.2013 607.593 97.2013H615.49L608.568 65.9453ZM598.113 86.1314C598.804 84.3407 601.442 77.361 601.442 77.361C601.442 77.361 602.173 75.5296 602.6 74.4104L603.168 77.0965C603.168 77.0965 604.812 84.5442 605.137 86.1314H598.113Z" fill="white"/>
<path d="M573.633 74.6361C573.612 76.0809 575.46 77.0576 578.423 78.5024C583.315 80.7408 585.589 83.4268 585.528 87.0082C585.488 93.4996 579.682 97.6914 570.77 97.6914C566.954 97.6507 563.3 96.8775 561.311 96.0228L562.508 89.0228L563.584 89.5112C566.365 90.6711 568.192 91.1594 571.582 91.1594C574.018 91.1594 576.637 90.203 576.678 88.1071C576.698 86.7234 575.561 85.7466 572.273 84.2204C569.025 82.735 564.762 80.232 564.823 75.7553C564.863 69.6913 570.791 65.418 579.174 65.418C582.463 65.418 585.122 66.1099 586.787 66.7407L585.63 73.4965L584.858 73.1506C583.275 72.5198 581.265 71.9297 578.484 71.95C575.175 71.9297 573.633 73.3337 573.633 74.6361Z" fill="white"/>
<path d="M561.27 65.9668L555.971 97.2024H547.486L548.521 91.1384L552.764 65.9871L561.27 65.9668Z" fill="white"/>
<path d="M530.779 82.063C527.937 74.8391 521.157 68.8361 510.906 66.3536L511.008 65.7227H524.182C525.968 65.8041 527.41 66.3536 527.897 68.2664L530.779 82.063Z" fill="white"/>
<path d="M549.333 66.0039L535.956 97.1785H526.984L519.371 71.1318C524.832 74.6522 529.48 80.2278 531.125 84.0941L532.018 87.3296L540.341 66.0039H549.333Z" fill="white"/>
<path d="M56.0824 311.67C53.951 311.67 52.1849 310.957 50.7842 309.553C49.3836 308.149 48.6934 306.399 48.6934 304.344C48.6934 302.289 49.3836 300.539 50.7842 299.135C52.1646 297.71 53.9307 297.018 56.0824 297.018C57.3816 297.018 58.5589 297.324 59.6348 297.954C60.7107 298.565 61.5633 299.399 62.1722 300.457L60.5483 301.414C60.1423 300.64 59.5333 300.01 58.7416 299.542C57.9499 299.074 57.0568 298.85 56.0824 298.85C54.4584 298.85 53.1187 299.379 52.1037 300.437C51.0684 301.495 50.5609 302.797 50.5609 304.385C50.5609 305.952 51.0684 307.254 52.1037 308.312C53.139 309.37 54.4584 309.879 56.0824 309.879C57.0568 309.879 57.9296 309.655 58.7416 309.187C59.5333 308.719 60.1423 308.108 60.5483 307.335L62.1925 308.271C61.6038 309.329 60.7513 310.164 59.6754 310.795C58.5589 311.364 57.3816 311.67 56.0824 311.67Z" fill="white"/>
<path d="M74.1483 301.292V311.406H72.4025V309.676C71.5296 311.019 70.2508 311.67 68.5862 311.691C67.1652 311.691 65.9676 311.182 64.9729 310.144C63.9782 309.106 63.4707 307.865 63.4707 306.379C63.4707 304.894 63.9579 303.632 64.9526 302.615C65.9473 301.577 67.1449 301.068 68.5659 301.068C70.2305 301.068 71.5093 301.74 72.3822 303.063V301.292H74.1483ZM68.8298 309.961C69.8448 309.961 70.6973 309.615 71.3875 308.923C72.0777 308.231 72.4228 307.377 72.4228 306.339C72.4228 305.321 72.0777 304.467 71.3875 303.754C70.6973 303.063 69.8448 302.717 68.8298 302.717C67.8148 302.717 66.9825 303.063 66.2924 303.754C65.6022 304.446 65.2571 305.301 65.2571 306.339C65.2571 307.356 65.6022 308.211 66.2924 308.923C66.9623 309.615 67.8148 309.961 68.8298 309.961Z" fill="white"/>
<path d="M78.5759 302.987C79.1443 301.725 80.1998 301.115 81.7223 301.115V302.946C80.8697 302.905 80.1186 303.129 79.5097 303.638C78.9007 304.147 78.5759 304.94 78.5759 306.039V311.391H76.8301V301.277H78.5759V302.987Z" fill="white"/>
<path d="M91.2416 297.246H93.0076V311.409H91.2619V309.68C90.389 311.023 89.1101 311.674 87.4456 311.674C86.0246 311.674 84.827 311.165 83.8323 310.127C82.8376 309.09 82.3301 307.848 82.3301 306.363C82.3301 304.877 82.8173 303.616 83.812 302.598C84.8067 301.56 86.0043 301.052 87.4253 301.052C89.0898 301.052 90.3687 301.723 91.2416 303.046V297.246ZM87.6689 309.965C88.6839 309.965 89.5364 309.619 90.2266 308.927C90.9168 308.235 91.2619 307.38 91.2619 306.342C91.2619 305.325 90.9168 304.45 90.2266 303.758C89.5364 303.066 88.6839 302.72 87.6689 302.72C86.6539 302.72 85.8216 303.066 85.1315 303.758C84.4413 304.45 84.0962 305.305 84.0962 306.342C84.0962 307.36 84.4413 308.215 85.1315 308.927C85.8013 309.619 86.6539 309.965 87.6689 309.965Z" fill="white"/>
<path d="M109.614 297.223H111.461V311.386H109.614V305.016H102.753V311.386H100.885V297.223H102.753V303.226H109.614V297.223Z" fill="white"/>
<path d="M122.826 310.084C121.791 311.101 120.532 311.63 119.05 311.63C117.569 311.63 116.31 311.121 115.295 310.104C114.28 309.086 113.752 307.825 113.752 306.319C113.752 304.813 114.26 303.572 115.295 302.534C116.33 301.517 117.569 300.988 119.05 300.988C120.532 300.988 121.791 301.496 122.826 302.514C123.861 303.531 124.389 304.793 124.389 306.299C124.389 307.804 123.861 309.066 122.826 310.084ZM119.071 309.921C120.086 309.921 120.918 309.575 121.608 308.883C122.298 308.191 122.643 307.336 122.643 306.319C122.643 305.302 122.298 304.447 121.608 303.755C120.918 303.063 120.065 302.717 119.071 302.738C118.076 302.738 117.244 303.083 116.554 303.775C115.863 304.467 115.518 305.322 115.518 306.339C115.518 307.357 115.863 308.211 116.554 308.903C117.223 309.575 118.076 309.921 119.071 309.921Z" fill="white"/>
<path d="M126.461 311.366V296.613H128.206L128.227 311.366H126.461Z" fill="white"/>
<path d="M139.247 297.201H140.993V311.364H139.247V309.634C138.374 310.978 137.096 311.629 135.431 311.649C134.01 311.649 132.812 311.14 131.818 310.103C130.823 309.065 130.316 307.823 130.316 306.338C130.316 304.852 130.803 303.591 131.797 302.573C132.792 301.556 133.99 301.027 135.411 301.027C137.075 301.027 138.354 301.698 139.227 303.021L139.247 297.201ZM135.654 309.919C136.669 309.919 137.522 309.573 138.212 308.882C138.902 308.19 139.247 307.335 139.247 306.297C139.247 305.28 138.902 304.405 138.212 303.713C137.522 303.021 136.669 302.675 135.654 302.675C134.639 302.675 133.807 303.021 133.117 303.713C132.427 304.405 132.082 305.259 132.082 306.297C132.082 307.315 132.427 308.169 133.117 308.882C133.807 309.573 134.66 309.919 135.654 309.919Z" fill="white"/>
<path d="M144.891 307.094C145.074 307.99 145.48 308.702 146.13 309.19C146.779 309.679 147.591 309.943 148.545 309.943C149.885 309.943 150.839 309.455 151.448 308.458L152.95 309.312C151.976 310.838 150.494 311.591 148.505 311.591C146.901 311.591 145.602 311.083 144.607 310.086C143.613 309.088 143.105 307.806 143.105 306.28C143.105 304.754 143.592 303.492 144.567 302.475C145.541 301.458 146.82 300.949 148.383 300.949C149.865 300.949 151.062 301.478 151.996 302.516C152.93 303.553 153.397 304.815 153.397 306.28C153.397 306.545 153.377 306.789 153.336 307.074L144.891 307.094ZM148.383 302.638C147.449 302.638 146.657 302.902 146.048 303.431C145.439 303.96 145.054 304.673 144.891 305.568H151.631C151.489 304.612 151.103 303.879 150.494 303.391C149.885 302.882 149.195 302.638 148.383 302.638Z" fill="white"/>
<path d="M157.172 302.925C157.74 301.664 158.796 301.053 160.318 301.053V302.885C159.465 302.844 158.714 303.068 158.105 303.576C157.496 304.085 157.172 304.879 157.172 305.978V311.329H155.426V301.216H157.192V302.925H157.172Z" fill="white"/>
<path d="M172.094 300.969C173.271 300.969 174.225 301.335 174.935 302.088C175.646 302.841 176.011 303.859 176.011 305.141V311.347H174.245V305.242C174.245 304.428 174.022 303.777 173.575 303.33C173.129 302.882 172.52 302.658 171.748 302.658C170.876 302.658 170.165 302.943 169.637 303.472C169.089 304.022 168.825 304.856 168.825 305.995V311.347H167.059V301.234H168.805V302.699C169.556 301.539 170.632 300.969 172.094 300.969Z" fill="white"/>
<path d="M186.811 301.213H188.557V311.327H186.791V309.597C185.918 310.94 184.639 311.591 182.975 311.591C181.554 311.591 180.356 311.083 179.361 310.045C178.367 309.007 177.859 307.766 177.859 306.28C177.859 304.795 178.346 303.533 179.341 302.516C180.336 301.478 181.533 300.969 182.954 300.969C184.619 300.969 185.898 301.641 186.771 302.963L186.811 301.213ZM183.218 309.882C184.233 309.882 185.086 309.536 185.776 308.844C186.466 308.152 186.811 307.298 186.811 306.26C186.811 305.242 186.466 304.367 185.776 303.676C185.086 302.984 184.233 302.638 183.218 302.638C182.203 302.638 181.371 302.984 180.681 303.676C179.991 304.367 179.645 305.222 179.645 306.26C179.645 307.277 179.991 308.132 180.681 308.844C181.371 309.536 182.203 309.882 183.218 309.882Z" fill="white"/>
<path d="M202.114 300.928C203.251 300.928 204.164 301.295 204.855 302.027C205.545 302.76 205.91 303.757 205.91 305.018V311.306H204.164V305.079C204.164 304.306 203.961 303.696 203.555 303.268C203.149 302.841 202.622 302.617 201.952 302.617C201.201 302.617 200.592 302.882 200.145 303.37C199.698 303.879 199.475 304.652 199.475 305.69V311.306H197.709V305.079C197.709 304.306 197.526 303.696 197.141 303.268C196.755 302.841 196.227 302.617 195.578 302.617C194.847 302.617 194.218 302.882 193.73 303.39C193.243 303.899 193 304.672 193 305.69V311.306H191.234V301.193H192.979V302.556C193.67 301.478 194.664 300.928 195.984 300.928C197.344 300.928 198.338 301.498 198.947 302.638C199.638 301.518 200.693 300.949 202.114 300.928Z" fill="white"/>
<path d="M209.567 307.053C209.75 307.949 210.156 308.661 210.805 309.149C211.455 309.658 212.267 309.902 213.221 309.902C214.561 309.902 215.515 309.414 216.124 308.417L217.626 309.271C216.652 310.798 215.17 311.55 213.18 311.55C211.577 311.55 210.277 311.042 209.283 310.045C208.288 309.048 207.781 307.766 207.781 306.239C207.781 304.713 208.268 303.452 209.242 302.434C210.217 301.417 211.495 300.908 213.059 300.908C214.54 300.908 215.738 301.437 216.672 302.475C217.606 303.513 218.072 304.774 218.072 306.239C218.072 306.504 218.052 306.748 218.012 307.033L209.567 307.053ZM213.059 302.577C212.125 302.577 211.333 302.841 210.724 303.37C210.115 303.899 209.729 304.611 209.567 305.507H216.306C216.164 304.55 215.779 303.818 215.17 303.329C214.581 302.841 213.87 302.577 213.059 302.577Z" fill="white"/>
<path d="M484.666 309.333H491.223V311.104H482.799V296.941H491.121V298.732H484.666V303.086H490.614V304.836H484.666V309.333Z" fill="white"/>
<path d="M502.043 311.083H499.992L497.151 307.257L494.329 311.083H492.279L496.136 305.873L492.502 300.969H494.573L497.171 304.469L499.769 300.949H501.819L498.186 305.853L502.043 311.083Z" fill="white"/>
<path d="M509.251 300.725C510.672 300.725 511.87 301.234 512.865 302.271C513.859 303.309 514.367 304.571 514.367 306.036C514.367 307.522 513.88 308.783 512.885 309.801C511.89 310.838 510.693 311.347 509.272 311.347C507.607 311.347 506.328 310.676 505.455 309.353V315.132H503.71L503.689 300.969H505.455V302.699C506.308 301.376 507.587 300.725 509.251 300.725ZM509.028 309.658C510.043 309.658 510.875 309.312 511.565 308.62C512.256 307.928 512.601 307.074 512.601 306.036C512.601 305.019 512.256 304.144 511.565 303.452C510.875 302.76 510.023 302.414 509.028 302.414C508.013 302.414 507.16 302.76 506.47 303.452C505.78 304.144 505.435 304.998 505.435 306.036C505.435 307.053 505.78 307.908 506.47 308.62C507.16 309.312 508.013 309.658 509.028 309.658Z" fill="white"/>
<path d="M517.328 299.138C516.983 299.138 516.719 299.016 516.476 298.792C516.252 298.568 516.131 298.283 516.131 297.957C516.131 297.632 516.252 297.347 516.476 297.123C516.699 296.879 516.983 296.777 517.328 296.777C517.653 296.777 517.917 296.899 518.161 297.123C518.384 297.367 518.506 297.632 518.506 297.957C518.506 298.283 518.384 298.548 518.161 298.792C517.937 299.016 517.653 299.138 517.328 299.138ZM516.455 311.083V300.969H518.222V311.083H516.455Z" fill="white"/>
<path d="M522.627 302.659C523.196 301.398 524.251 300.787 525.774 300.787V302.619C524.921 302.578 524.17 302.802 523.561 303.311C522.952 303.819 522.627 304.613 522.627 305.712V311.064H520.881V300.95H522.648V302.659H522.627Z" fill="white"/>
<path d="M534.765 300.969H536.632L532.532 311.713C532.106 312.853 531.497 313.728 530.725 314.338C529.954 314.929 529.061 315.213 528.046 315.132V313.504C529.284 313.606 530.177 312.914 530.746 311.429L530.928 311.042L526.523 300.969H528.391L531.76 308.722L534.765 300.969Z" fill="white"/>
<path d="M548.833 296.898C550.762 296.898 552.346 297.59 553.625 298.953C554.904 300.316 555.532 301.985 555.532 303.979C555.532 305.953 554.904 307.642 553.625 309.005C552.346 310.369 550.762 311.061 548.833 311.061H543.332L543.312 296.898H548.833ZM548.833 309.27C550.274 309.27 551.452 308.761 552.365 307.744C553.279 306.726 553.725 305.465 553.725 303.959C553.725 302.453 553.258 301.191 552.345 300.174C551.431 299.156 550.254 298.668 548.813 298.668H545.18V309.27H548.833Z" fill="white"/>
<path d="M565.983 300.928H567.729V311.042H565.963V309.312C565.09 310.655 563.811 311.306 562.146 311.327C560.725 311.327 559.528 310.818 558.533 309.78C557.538 308.742 557.031 307.501 557.031 306.016C557.031 304.53 557.518 303.269 558.513 302.251C559.507 301.213 560.705 300.705 562.126 300.705C563.791 300.705 565.069 301.376 565.942 302.699L565.983 300.928ZM562.39 309.617C563.405 309.617 564.257 309.271 564.948 308.58C565.638 307.888 565.983 307.033 565.983 305.995C565.983 304.978 565.638 304.103 564.948 303.411C564.257 302.719 563.405 302.373 562.39 302.373C561.375 302.373 560.543 302.719 559.852 303.411C559.162 304.103 558.817 304.958 558.817 305.995C558.817 307.013 559.162 307.867 559.852 308.58C560.543 309.271 561.375 309.617 562.39 309.617Z" fill="white"/>
<path d="M575.871 302.633H573.191V308.106C573.191 308.615 573.293 308.961 573.475 309.165C573.678 309.368 573.963 309.49 574.368 309.49C574.774 309.49 575.262 309.49 575.871 309.449V311.037C574.328 311.24 573.211 311.118 572.501 310.67C571.79 310.223 571.425 309.368 571.425 308.106V302.633H569.436V300.944H571.425V298.644L573.171 298.115V300.944H575.85L575.871 302.633Z" fill="white"/>
<path d="M578.694 306.791C578.877 307.686 579.283 308.398 579.932 308.887C580.582 309.395 581.394 309.64 582.348 309.64C583.688 309.64 584.642 309.151 585.251 308.154L586.753 309.009C585.779 310.535 584.297 311.288 582.307 311.288C580.704 311.288 579.405 310.779 578.41 309.782C577.415 308.785 576.908 307.503 576.908 305.977C576.908 304.451 577.395 303.189 578.369 302.171C579.344 301.154 580.622 300.645 582.186 300.645C583.667 300.645 584.865 301.174 585.819 302.212C586.753 303.25 587.22 304.512 587.22 305.977C587.22 306.241 587.2 306.485 587.159 306.77L578.694 306.791ZM582.165 302.314C581.232 302.314 580.44 302.578 579.831 303.108C579.222 303.637 578.836 304.349 578.674 305.244H585.413C585.271 304.288 584.885 303.555 584.276 303.067C583.688 302.578 582.977 302.314 582.165 302.314Z" fill="white"/>
<path d="M487.543 194.515C487.543 193.002 487.874 191.65 488.536 190.459C489.198 189.254 490.102 188.321 491.249 187.66C492.397 186.984 493.676 186.646 495.088 186.646C496.809 186.646 498.28 187.058 499.501 187.881C500.736 188.689 501.634 189.835 502.193 191.319H500.383C499.942 190.276 499.266 189.46 498.354 188.872C497.456 188.285 496.368 187.991 495.088 187.991C493.956 187.991 492.934 188.255 492.022 188.784C491.124 189.313 490.418 190.077 489.904 191.077C489.389 192.061 489.131 193.207 489.131 194.515C489.131 195.823 489.389 196.969 489.904 197.954C490.418 198.938 491.124 199.695 492.022 200.224C492.934 200.753 493.956 201.017 495.088 201.017C496.368 201.017 497.456 200.731 498.354 200.158C499.266 199.57 499.942 198.762 500.383 197.733H502.193C501.634 199.203 500.736 200.342 499.501 201.15C498.265 201.958 496.795 202.362 495.088 202.362C493.676 202.362 492.397 202.031 491.249 201.37C490.102 200.694 489.198 199.761 488.536 198.571C487.874 197.381 487.543 196.029 487.543 194.515Z" fill="white"/>
<path d="M515.946 186.822L510.1 202.229H508.335L502.488 186.822H504.165L509.217 200.554L514.314 186.822H515.946Z" fill="white"/>
<path d="M516.018 194.515C516.018 193.002 516.349 191.65 517.011 190.459C517.673 189.254 518.578 188.321 519.725 187.66C520.872 186.984 522.152 186.646 523.564 186.646C525.285 186.646 526.756 187.058 527.976 187.881C529.212 188.689 530.109 189.835 530.668 191.319H528.859C528.418 190.276 527.741 189.46 526.829 188.872C525.932 188.285 524.844 187.991 523.564 187.991C522.431 187.991 521.409 188.255 520.497 188.784C519.6 189.313 518.894 190.077 518.379 191.077C517.864 192.061 517.607 193.207 517.607 194.515C517.607 195.823 517.864 196.969 518.379 197.954C518.894 198.938 519.6 199.695 520.497 200.224C521.409 200.753 522.431 201.017 523.564 201.017C524.844 201.017 525.932 200.731 526.829 200.158C527.741 199.57 528.418 198.762 528.859 197.733H530.668C530.109 199.203 529.212 200.342 527.976 201.15C526.741 201.958 525.27 202.362 523.564 202.362C522.152 202.362 520.872 202.031 519.725 201.37C518.578 200.694 517.673 199.761 517.011 198.571C516.349 197.381 516.018 196.029 516.018 194.515Z" fill="white"/>
</g>
<defs>
<linearGradient id="paint0_linear_2152_10587" x1="-185.792" y1="212.328" x2="664.295" y2="211.333" gradientUnits="userSpaceOnUse">
<stop stop-color="#885DF5"/>
<stop offset="0.9944" stop-color="#4551A6"/>
</linearGradient>
<linearGradient id="paint1_linear_2152_10587" x1="198.182" y1="513.917" x2="344.574" y2="92.5823" gradientUnits="userSpaceOnUse">
<stop stop-color="#885DF5"/>
<stop offset="0.9944" stop-color="#6B7CFE"/>
</linearGradient>
<linearGradient id="paint2_linear_2152_10587" x1="277.484" y1="321.648" x2="350.908" y2="77.1304" gradientUnits="userSpaceOnUse">
<stop stop-color="#885DF5"/>
<stop offset="0.9944" stop-color="#6B7CFE"/>
</linearGradient>
<linearGradient id="paint3_linear_2152_10587" x1="83.5484" y1="425.541" x2="172.125" y2="52.7331" gradientUnits="userSpaceOnUse">
<stop stop-color="#885DF5"/>
<stop offset="0.9944" stop-color="#6B7CFE"/>
</linearGradient>
<linearGradient id="paint4_linear_2152_10587" x1="171.309" y1="456.062" x2="241.589" y2="95.9781" gradientUnits="userSpaceOnUse">
<stop stop-color="#885DF5"/>
<stop offset="0.9944" stop-color="#6B7CFE"/>
</linearGradient>
<linearGradient id="paint5_linear_2152_10587" x1="274.693" y1="512.425" x2="365.556" y2="135.883" gradientUnits="userSpaceOnUse">
<stop stop-color="#885DF5"/>
<stop offset="0.9944" stop-color="#6B7CFE"/>
</linearGradient>
<linearGradient id="paint6_linear_2152_10587" x1="272.817" y1="545.359" x2="431.267" y2="135.118" gradientUnits="userSpaceOnUse">
<stop stop-color="#885DF5"/>
<stop offset="0.9944" stop-color="#6B7CFE"/>
</linearGradient>
<linearGradient id="paint7_linear_2152_10587" x1="0.152779" y1="211.187" x2="663.274" y2="210.407" gradientUnits="userSpaceOnUse">
<stop stop-color="#4D338A"/>
<stop offset="0.9888" stop-color="#252857"/>
</linearGradient>
<linearGradient id="paint8_linear_2152_10587" x1="146.914" y1="481.903" x2="240.549" y2="82.4507" gradientUnits="userSpaceOnUse">
<stop stop-color="#885DF5"/>
<stop offset="0.9944" stop-color="#6B7CFE"/>
</linearGradient>
<linearGradient id="paint9_linear_2152_10587" x1="-0.0993039" y1="211.29" x2="663.18" y2="210.758" gradientUnits="userSpaceOnUse">
<stop stop-color="#6947BD"/>
<stop offset="0.9888" stop-color="#252857"/>
</linearGradient>
<linearGradient id="paint10_linear_2152_10587" x1="-0.118889" y1="211.274" x2="663.16" y2="210.716" gradientUnits="userSpaceOnUse">
<stop stop-color="#885DF5"/>
<stop offset="0.9888" stop-color="#2E3670"/>
</linearGradient>
<linearGradient id="paint11_linear_2152_10587" x1="277.484" y1="321.648" x2="350.908" y2="77.1304" gradientUnits="userSpaceOnUse">
<stop stop-color="#885DF5"/>
<stop offset="0.9944" stop-color="#6B7CFE"/>
</linearGradient>
<linearGradient id="paint12_linear_2152_10587" x1="83.5484" y1="425.541" x2="172.125" y2="52.7331" gradientUnits="userSpaceOnUse">
<stop stop-color="#885DF5"/>
<stop offset="0.9944" stop-color="#6B7CFE"/>
</linearGradient>
<linearGradient id="paint13_linear_2152_10587" x1="-0.197024" y1="211.221" x2="663.116" y2="210.613" gradientUnits="userSpaceOnUse">
<stop stop-color="#885DF5"/>
<stop offset="0.9944" stop-color="#4551A6"/>
</linearGradient>
<linearGradient id="paint14_linear_2152_10587" x1="171.309" y1="456.062" x2="241.589" y2="95.9781" gradientUnits="userSpaceOnUse">
<stop stop-color="#885DF5"/>
<stop offset="0.9944" stop-color="#6B7CFE"/>
</linearGradient>
<linearGradient id="paint15_linear_2152_10587" x1="274.693" y1="512.425" x2="365.556" y2="135.883" gradientUnits="userSpaceOnUse">
<stop stop-color="#885DF5"/>
<stop offset="0.9944" stop-color="#6B7CFE"/>
</linearGradient>
<linearGradient id="paint16_linear_2152_10587" x1="-0.222094" y1="211.208" x2="663.022" y2="210.615" gradientUnits="userSpaceOnUse">
<stop stop-color="#885DF5"/>
<stop offset="0.9944" stop-color="#5C6BDB"/>
</linearGradient>
<linearGradient id="paint17_linear_2152_10587" x1="-0.127809" y1="211.281" x2="662.955" y2="210.871" gradientUnits="userSpaceOnUse">
<stop stop-color="#885DF5"/>
<stop offset="0.9944" stop-color="#6B7CFE"/>
</linearGradient>
</defs>
</svg>
