<svg width="24" height="21" viewBox="0 0 24 21" fill="none" xmlns="http://www.w3.org/2000/svg">
<path d="M21.5741 12.3521L23.5052 3.85512C23.6446 3.24162 23.1783 2.65741 22.5492 2.65741H6.50376L6.12932 0.826894C6.03602 0.370632 5.63454 0.0429688 5.1688 0.0429688H0.980417C0.438941 0.0429688 0 0.48191 0 1.02339V1.677C0 2.21847 0.438941 2.65741 0.980417 2.65741H3.83519L6.70487 16.687C6.01833 17.0818 5.5557 17.8221 5.5557 18.6709C5.5557 19.9343 6.5799 20.9585 7.84333 20.9585C9.10677 20.9585 10.131 19.9343 10.131 18.6709C10.131 18.0306 9.86761 17.4521 9.4437 17.0369H18.0079C17.5841 17.4521 17.3207 18.0306 17.3207 18.6709C17.3207 19.9343 18.3449 20.9585 19.6083 20.9585C20.8718 20.9585 21.896 19.9343 21.896 18.6709C21.896 17.7651 21.3695 16.9824 20.606 16.6118L20.8313 15.6201C20.9707 15.0066 20.5044 14.4224 19.8753 14.4224H8.91023L8.64287 13.1152H20.618C21.0758 13.1152 21.4726 12.7984 21.5741 12.3521Z" fill="black" fill-opacity="0.87"/>
</svg>
