<svg width="84" height="85" viewBox="0 0 84 85" fill="none" xmlns="http://www.w3.org/2000/svg">
<path d="M24.8571 61.5117C24.8571 62.6555 25.3087 63.7524 26.1124 64.5611C26.9161 65.3699 28.0062 65.8242 29.1429 65.8242H54.8571C55.9938 65.8242 57.0839 65.3699 57.8876 64.5611C58.6913 63.7524 59.1429 62.6555 59.1429 61.5117V31.3242H24.8571V61.5117ZM49.1429 38.5117C49.1429 38.1305 49.2934 37.7648 49.5613 37.4953C49.8292 37.2257 50.1925 37.0742 50.5714 37.0742C50.9503 37.0742 51.3137 37.2257 51.5816 37.4953C51.8495 37.7648 52 38.1305 52 38.5117V58.6367C52 59.018 51.8495 59.3836 51.5816 59.6532C51.3137 59.9228 50.9503 60.0742 50.5714 60.0742C50.1925 60.0742 49.8292 59.9228 49.5613 59.6532C49.2934 59.3836 49.1429 59.018 49.1429 58.6367V38.5117ZM40.5714 38.5117C40.5714 38.1305 40.7219 37.7648 40.9898 37.4953C41.2578 37.2257 41.6211 37.0742 42 37.0742C42.3789 37.0742 42.7422 37.2257 43.0102 37.4953C43.2781 37.7648 43.4286 38.1305 43.4286 38.5117V58.6367C43.4286 59.018 43.2781 59.3836 43.0102 59.6532C42.7422 59.9228 42.3789 60.0742 42 60.0742C41.6211 60.0742 41.2578 59.9228 40.9898 59.6532C40.7219 59.3836 40.5714 59.018 40.5714 58.6367V38.5117ZM32 38.5117C32 38.1305 32.1505 37.7648 32.4184 37.4953C32.6863 37.2257 33.0497 37.0742 33.4286 37.0742C33.8075 37.0742 34.1708 37.2257 34.4387 37.4953C34.7066 37.7648 34.8571 38.1305 34.8571 38.5117V58.6367C34.8571 59.018 34.7066 59.3836 34.4387 59.6532C34.1708 59.9228 33.8075 60.0742 33.4286 60.0742C33.0497 60.0742 32.6863 59.9228 32.4184 59.6532C32.1505 59.3836 32 59.018 32 58.6367V38.5117ZM60.5714 22.6992H49.8571L49.0179 21.0192C48.8401 20.66 48.5662 20.3578 48.2271 20.1467C47.8879 19.9356 47.497 19.8239 47.0982 19.8242H36.8929C36.495 19.8227 36.1047 19.934 35.7668 20.1453C35.4289 20.3566 35.1569 20.6595 34.9821 21.0192L34.1429 22.6992H23.4286C23.0497 22.6992 22.6863 22.8507 22.4184 23.1203C22.1505 23.3899 22 23.7555 22 24.1367V27.0117C22 27.393 22.1505 27.7586 22.4184 28.0282C22.6863 28.2978 23.0497 28.4492 23.4286 28.4492H60.5714C60.9503 28.4492 61.3137 28.2978 61.5816 28.0282C61.8495 27.7586 62 27.393 62 27.0117V24.1367C62 23.7555 61.8495 23.3899 61.5816 23.1203C61.3137 22.8507 60.9503 22.6992 60.5714 22.6992Z" fill="black"/>
</svg>
