<svg width="76" height="76" viewBox="0 0 76 76" fill="none" xmlns="http://www.w3.org/2000/svg">
<g clip-path="url(#clip0_2122_17334)">
<rect width="76" height="76" fill="url(#paint0_linear_2122_17334)"/>
<rect width="76" height="76" fill="url(#paint1_linear_2122_17334)"/>
<mask id="mask0_2122_17334" style="mask-type:luminance" maskUnits="userSpaceOnUse" x="0" y="0" width="76" height="76">
<path d="M76 0H0V76H76V0Z" fill="white"/>
</mask>
<g mask="url(#mask0_2122_17334)">
<path d="M-121.389 58.7011C-122.57 58.492 -123.731 58.2929 -124.902 58.1136V56.8989C-123.662 57.088 -122.422 57.3071 -121.191 57.5262C-109.928 59.4678 -99.2905 61.3098 -87.8389 52.1195C-76.3775 42.9392 -75.8218 32.116 -75.2264 20.6654C-74.6409 9.45388 -74.0455 -2.146 -62.1672 -11.6748C-50.289 -21.2036 -38.887 -19.2322 -27.8523 -17.3204C-16.5893 -15.3788 -5.95151 -13.5268 5.50003 -22.7071C16.9516 -31.8875 17.5173 -42.7207 18.1127 -54.1612C18.6981 -65.3728 19.2836 -76.9727 31.1718 -86.5015C43.05 -96.0204 54.452 -94.0588 65.4767 -92.1471C76.7397 -90.2055 87.3776 -88.3535 98.8292 -97.5338C101.787 -99.9036 104.009 -102.373 105.696 -104.941H107.106C105.309 -102.034 102.878 -99.2365 99.5933 -96.5879C87.715 -87.069 76.3131 -89.0505 65.2783 -90.9423C54.0153 -92.9038 43.3775 -94.7359 31.926 -85.5556C20.4645 -76.3752 19.9088 -65.552 19.3134 -54.1015C18.7279 -42.8899 18.1324 -31.2901 6.25421 -21.7612C-5.62404 -12.2424 -17.016 -14.2039 -28.0508 -16.1156C-39.3138 -18.0772 -49.9615 -19.9092 -61.423 -10.7289C-72.8844 -1.54858 -73.4402 9.27464 -74.0356 20.7252C-74.621 31.9367 -75.2065 43.5366 -87.0947 53.0654C-98.963 62.5843 -110.365 60.6128 -121.389 58.7011Z" fill="url(#paint2_linear_2122_17334)"/>
<path d="M196.268 -95.4721C197.796 -92.714 198.65 -89.5277 198.65 -86.1523L198.67 -64.0379C198.332 -61.1902 198.183 -58.3325 198.035 -55.5047C197.439 -44.0443 196.883 -33.231 185.422 -24.0506C173.961 -14.8703 163.323 -16.7124 152.07 -18.6639C141.045 -20.5757 129.643 -22.5471 117.765 -13.0183C105.876 -3.49941 105.281 8.10046 104.705 19.3219C104.11 30.7625 103.554 41.5957 92.0927 50.776C80.6313 59.9564 69.9935 58.1143 58.7404 56.1628C47.7056 54.251 36.3037 52.2795 24.4254 61.8084C12.5472 71.3272 11.9418 82.9271 11.3663 94.1486C11.2571 96.2197 11.158 98.2808 10.9695 100.312L-54.227 100.362C-53.5522 99.9038 -52.8674 99.3959 -52.1927 98.8483C-40.3046 89.3294 -39.7092 77.7296 -39.1336 66.508C-38.5382 55.0476 -37.9825 44.2343 -26.5211 35.054C-15.0596 25.8736 -4.41179 27.7057 6.85121 29.6672C17.886 31.579 29.278 33.5505 41.1562 24.0216C53.0345 14.5028 53.6397 2.90292 54.2153 -8.3186C54.8107 -19.7791 55.3664 -30.5924 66.8279 -39.7727C78.2893 -48.953 88.9272 -47.121 100.18 -45.1595C111.215 -43.2577 122.617 -41.2762 134.495 -50.8051C138.475 -54.0012 141.194 -57.4264 143.059 -61.001L142.553 -58.0338H146.701L149.301 -73.3178H146.761C147.217 -76.5837 147.386 -79.8794 147.545 -83.1453C147.932 -90.8122 148.329 -98.1903 151.98 -104.98H150.651C147.118 -98.021 146.731 -90.5334 146.354 -83.2051C146.175 -79.8396 146.006 -76.5339 145.56 -73.3178H145.153L143.893 -65.8899C142.186 -60.8815 139.209 -56.132 133.751 -51.751C122.29 -42.5706 111.652 -44.4127 100.399 -46.3642C89.3737 -48.276 77.9719 -50.2475 66.0937 -40.7186C54.2055 -31.1998 53.6101 -19.5999 53.0345 -8.37833C52.4391 3.06223 51.8833 13.8954 40.4218 23.0757C28.9604 32.2561 18.3226 30.414 7.06952 28.4624C-3.96524 26.5507 -15.3672 24.5792 -27.2455 34.1081C-39.1236 43.6369 -39.7588 55.2467 -40.3344 66.4583C-40.9297 77.9187 -41.4855 88.732 -52.9469 97.9123C-54.108 98.8383 -55.2491 99.6648 -56.4102 100.362L-105.828 100.402C-112.854 100.412 -119.016 96.6578 -122.41 91.052C-119.086 96.9963 -112.755 101.009 -105.491 101L179.736 100.79C190.443 100.78 199.116 92.0577 199.106 81.324L198.987 -85.5748C198.987 -89.1992 198.005 -92.5845 196.268 -95.4721ZM198.779 80.7266C198.789 91.4702 190.106 100.183 179.408 100.193L49.0353 100.283C49.0949 100.223 49.1643 100.173 49.2437 100.113C60.7052 90.9325 71.3529 92.7646 82.6159 94.7261C93.6507 96.6379 105.043 98.6093 116.921 89.0805C128.799 79.5616 129.405 67.9618 129.98 56.7403C130.576 45.2798 131.131 34.4665 142.593 25.2862C154.054 16.1058 164.692 17.9379 175.945 19.8994C183.378 21.1739 190.959 22.4883 198.739 20.3077L198.779 80.7266ZM198.729 19.0929C191.187 21.3133 183.805 20.0289 176.134 18.7146C165.109 16.8028 153.707 14.8313 141.829 24.3602C129.941 33.879 129.345 45.4789 128.77 56.7004C128.174 68.141 127.619 78.9742 116.157 88.1545C104.696 97.3349 94.0576 95.4928 82.8046 93.5412C71.7697 91.6295 60.3678 89.658 48.4895 99.1869C48.0331 99.5453 47.5865 99.9237 47.1697 100.303L12.1899 100.332C12.3586 98.2907 12.4678 96.2595 12.567 94.2283C13.1624 82.7678 13.7181 71.9545 25.1796 62.7742C36.641 53.5939 47.2789 55.4259 58.5518 57.3875C69.5867 59.2992 80.9786 61.2707 92.8568 51.7419C104.735 42.223 105.341 30.6231 105.916 19.4016C106.512 7.94115 107.067 -2.87213 118.529 -12.0525C129.99 -21.2328 140.628 -19.4007 151.881 -17.4392C162.916 -15.5374 174.318 -13.556 186.196 -23.0848C195.276 -30.3634 197.757 -38.8567 198.69 -47.4496L198.729 19.0929Z" fill="url(#paint3_linear_2122_17334)"/>
<path d="M105.719 -104.949C104.022 -102.38 101.809 -99.9111 98.8517 -97.5414C87.3902 -88.361 76.7524 -90.2031 65.4993 -92.1547C54.4745 -94.0664 43.0725 -96.0379 31.1943 -86.5091C19.3061 -76.9902 18.7107 -65.3903 18.1352 -54.1688C17.5398 -42.7282 16.9841 -31.895 5.52257 -22.7147C-5.9389 -13.5344 -16.5767 -15.3764 -27.8298 -17.328C-38.8646 -19.2397 -50.2665 -21.2112 -62.1447 -11.6824C-74.023 -2.15358 -74.6283 9.43633 -75.2038 20.6579C-75.7992 32.1184 -76.355 42.9316 -87.8164 52.112C-99.2779 61.2923 -109.916 59.4602 -121.169 57.5186C-122.409 57.2996 -123.65 57.0905 -124.88 56.8913L-124.92 -0.411102C-120.524 -7.839 -120.107 -15.9539 -119.7 -23.8697C-119.105 -35.3302 -118.549 -46.1435 -107.088 -55.3238C-104.577 -57.3351 -102.106 -58.8287 -99.655 -59.904V-54.4874C-99.655 -52.3965 -97.9482 -50.6938 -95.8543 -50.6938L-71.4627 -50.7137C-69.3788 -50.7137 -67.682 -52.4263 -67.682 -54.5173V-59.7547C-58.5525 -58.4802 -49.1451 -58.5698 -39.4203 -66.3661C-27.5519 -75.875 -26.9466 -87.4749 -26.3711 -98.6864C-26.2619 -100.757 -26.1627 -102.818 -25.9741 -104.85L105.719 -104.949Z" fill="url(#paint4_linear_2122_17334)"/>
<path d="M196.268 -95.4716C194.73 -98.1002 192.587 -100.3 190.017 -101.943C187.01 -103.885 183.428 -105 179.597 -105L151.98 -104.98C148.329 -98.1898 147.942 -90.8117 147.545 -83.1448C147.376 -79.8789 147.217 -76.5832 146.761 -73.3173H149.301L146.701 -58.0333H142.553L143.059 -61.0005C141.204 -57.4259 138.475 -54.0007 134.495 -50.8046C122.617 -41.2857 111.215 -43.2671 100.18 -45.159C88.9176 -47.1205 78.2798 -48.9525 66.8283 -39.7722C55.3668 -30.5919 54.8111 -19.7687 54.2157 -8.31813C53.6302 2.89342 53.0348 14.4933 41.1566 24.0221C29.2783 33.541 17.8863 31.5795 6.8516 29.6677C-4.4114 27.7062 -15.0592 25.8741 -26.5207 35.0545C-37.9821 44.2348 -38.5378 55.058 -39.1332 66.5085C-39.7187 77.7201 -40.3042 89.32 -52.1924 98.8488C-52.8671 99.3964 -53.5518 99.8943 -54.2266 100.362L10.9698 100.312C11.1484 98.2912 11.2575 96.2202 11.3667 94.1491C11.9522 82.9376 12.5476 71.3377 24.4258 61.8089C36.3041 52.29 47.706 54.2515 58.7408 56.1633C70.0038 58.1049 80.6416 59.9569 92.0931 50.7765C103.544 41.5962 104.11 30.763 104.705 19.3224C105.291 8.11089 105.876 -3.489 117.765 -13.0178C129.643 -22.5367 141.045 -20.5752 152.07 -18.6634C163.333 -16.7218 173.97 -14.8698 185.422 -24.0501C196.883 -33.2305 197.439 -44.0537 198.035 -55.5042C198.174 -58.342 198.332 -61.1996 198.67 -64.0374L198.65 -86.1518C198.65 -89.5272 197.796 -92.7135 196.268 -95.4716ZM153.935 -57.794C152.07 -57.8139 150.284 -58.1923 149.311 -58.6105L149.897 -62.0357L150.423 -61.7967C151.782 -61.2291 152.675 -60.9902 154.332 -60.9902C155.523 -60.9902 156.803 -61.4581 156.823 -62.4837C156.833 -63.1608 156.277 -63.6387 154.67 -64.3855C153.082 -65.1124 150.998 -66.3371 151.028 -68.5276C151.048 -71.4948 153.945 -73.5857 158.044 -73.5857C159.651 -73.5857 160.951 -73.2472 161.765 -72.9385L161.199 -69.6328L160.822 -69.8021C160.048 -70.1108 159.066 -70.3995 157.706 -70.3896C156.089 -70.3896 155.325 -69.7025 155.325 -69.0653C155.315 -68.3583 156.218 -67.8804 157.667 -67.1735C160.058 -66.0782 161.17 -64.7639 161.14 -63.0114C161.13 -59.8551 158.292 -57.8039 153.935 -57.794ZM171.936 -58.0429C171.936 -58.0429 171.559 -59.7953 171.43 -60.3231H166.111C165.953 -59.9248 165.238 -58.0429 165.238 -58.0429H160.872L167.024 -72.0723C167.461 -73.058 168.215 -73.3368 169.208 -73.3368H172.413L175.787 -58.0529L171.936 -58.0429Z" fill="url(#paint5_linear_2122_17334)"/>
<path d="M198.681 -47.4688L198.731 19.0937C191.189 21.314 183.806 20.0296 176.135 18.7153C165.11 16.8036 153.708 14.832 141.83 24.3609C129.942 33.8797 129.346 45.4796 128.771 56.7011C128.176 68.1417 127.62 78.9749 116.158 88.1552C104.697 97.3356 94.059 95.4935 82.806 93.5419C71.7712 91.6302 60.3693 89.6588 48.491 99.1875C48.0345 99.5461 47.588 99.9245 47.1712 100.303L12.1914 100.333C12.3601 98.2915 12.4693 96.2603 12.5685 94.229C13.1639 82.7686 13.7196 71.9552 25.1811 62.7749C36.6425 53.5947 47.2804 55.4266 58.5533 57.3882C69.5881 59.2999 80.9801 61.2714 92.8583 51.7426C104.737 42.2237 105.342 30.6239 105.917 19.4024C106.513 7.94187 107.069 -2.87141 118.53 -12.0518C129.991 -21.232 140.629 -19.4 151.882 -17.4384C162.917 -15.5366 174.319 -13.5553 186.197 -23.0841C195.267 -30.3826 197.748 -38.8758 198.681 -47.4688Z" fill="url(#paint6_linear_2122_17334)"/>
<path d="M198.731 20.3103L198.771 80.7292C198.781 91.4728 190.098 100.185 179.4 100.195L49.0273 100.285C49.0869 100.225 49.1564 100.175 49.2357 100.116C60.6972 90.9351 71.345 92.7672 82.608 94.7287C93.6427 96.6405 105.035 98.612 116.913 89.0831C128.791 79.5643 129.397 67.9644 129.972 56.7429C130.567 45.2824 131.123 34.4691 142.585 25.2888C154.046 16.1085 164.684 17.9406 175.937 19.9021C183.36 21.1766 190.951 22.5008 198.731 20.3103Z" fill="url(#paint7_linear_2122_17334)"/>
<path d="M107.127 -104.951C105.331 -102.043 102.9 -99.2458 99.6156 -96.5972C87.7373 -87.0783 76.3354 -89.0598 65.3006 -90.9516C54.0376 -92.9131 43.3998 -94.7452 31.9483 -85.5649C20.4868 -76.3845 19.9311 -65.5613 19.3357 -54.1108C18.7502 -42.8992 18.1548 -31.2993 6.27652 -21.7705C-5.60172 -12.2517 -16.9937 -14.2132 -28.0284 -16.1249C-39.2914 -18.0864 -49.9392 -19.9185 -61.4007 -10.7382C-72.8621 -1.55782 -73.4178 9.26541 -74.0132 20.7159C-74.5987 31.9275 -75.1842 43.5273 -87.0724 53.0562C-98.9506 62.575 -110.353 60.6135 -121.378 58.7018C-122.559 58.4927 -123.72 58.2935 -124.891 58.1143L-124.871 81.563C-124.871 84.8986 -124.027 88.045 -122.529 90.7931C-122.479 90.8927 -122.449 90.9723 -122.38 91.042C-118.986 96.6478 -112.834 100.392 -105.798 100.392L-56.3794 100.352C-55.2283 99.6548 -54.0872 98.8284 -52.9162 97.9024C-41.4547 88.722 -40.899 77.8988 -40.3036 66.4483C-39.7181 55.2367 -39.1231 43.6369 -27.2449 34.1081C-15.3666 24.5792 -3.96472 26.5507 7.07004 28.4624C18.3331 30.404 28.9709 32.256 40.4224 23.0757C51.874 13.8954 52.4396 3.06223 53.035 -8.37833C53.6205 -19.5899 54.206 -31.1898 66.0942 -40.7186C77.9724 -50.2375 89.3743 -48.276 100.399 -46.3642C111.662 -44.4226 122.3 -42.5706 133.751 -51.751C139.219 -56.132 142.196 -60.8815 143.893 -65.8899L145.153 -73.3178H145.56C146.016 -76.5339 146.185 -79.8396 146.354 -83.2051C146.731 -90.5334 147.128 -98.021 150.651 -104.98L107.127 -104.951ZM124.721 -73.4373H131.161C132.035 -73.3974 132.739 -73.1286 132.977 -72.1926L134.387 -65.4319C132.997 -68.9666 129.683 -71.9039 124.672 -73.1186L124.721 -73.4373ZM136.917 -58.0438H132.531L128.81 -70.7887C131.479 -69.0662 133.751 -66.3379 134.555 -64.4461L134.992 -62.863L139.06 -73.2979H143.457L136.917 -58.0438Z" fill="url(#paint8_linear_2122_17334)"/>
</g>
</g>
<defs>
<linearGradient id="paint0_linear_2122_17334" x1="-21.2975" y1="38.1494" x2="76.1485" y2="38.077" gradientUnits="userSpaceOnUse">
<stop stop-color="#885DF5"/>
<stop offset="0.9944" stop-color="#4551A6"/>
</linearGradient>
<linearGradient id="paint1_linear_2122_17334" x1="-21.2975" y1="38.1494" x2="76.1485" y2="38.077" gradientUnits="userSpaceOnUse">
<stop stop-color="#885DF5"/>
<stop offset="0.9944" stop-color="#4551A6"/>
</linearGradient>
<linearGradient id="paint2_linear_2122_17334" x1="-28.12" y1="146.197" x2="43.5644" y2="-59.9249" gradientUnits="userSpaceOnUse">
<stop stop-color="#885DF5"/>
<stop offset="0.9944" stop-color="#6B7CFE"/>
</linearGradient>
<linearGradient id="paint3_linear_2122_17334" x1="8.36555" y1="161.582" x2="85.9506" y2="-39.104" gradientUnits="userSpaceOnUse">
<stop stop-color="#885DF5"/>
<stop offset="0.9944" stop-color="#6B7CFE"/>
</linearGradient>
<linearGradient id="paint4_linear_2122_17334" x1="-125.049" y1="-1.87929" x2="199.194" y2="-2.13924" gradientUnits="userSpaceOnUse">
<stop stop-color="#6947BD"/>
<stop offset="0.9888" stop-color="#252857"/>
</linearGradient>
<linearGradient id="paint5_linear_2122_17334" x1="-125.096" y1="-1.91519" x2="199.164" y2="-2.21198" gradientUnits="userSpaceOnUse">
<stop stop-color="#885DF5"/>
<stop offset="0.9944" stop-color="#4551A6"/>
</linearGradient>
<linearGradient id="paint6_linear_2122_17334" x1="-125.109" y1="-1.92075" x2="199.116" y2="-2.21032" gradientUnits="userSpaceOnUse">
<stop stop-color="#885DF5"/>
<stop offset="0.9944" stop-color="#5C6BDB"/>
</linearGradient>
<linearGradient id="paint7_linear_2122_17334" x1="-125.063" y1="-1.88442" x2="199.084" y2="-2.08445" gradientUnits="userSpaceOnUse">
<stop stop-color="#885DF5"/>
<stop offset="0.9944" stop-color="#6B7CFE"/>
</linearGradient>
<linearGradient id="paint8_linear_2122_17334" x1="-124.94" y1="-2.18382" x2="150.717" y2="-2.3813" gradientUnits="userSpaceOnUse">
<stop stop-color="#885DF5"/>
<stop offset="0.9888" stop-color="#2E3670"/>
</linearGradient>
<clipPath id="clip0_2122_17334">
<rect width="76" height="76" fill="white"/>
</clipPath>
</defs>
</svg>
