<svg width="32" height="32" viewBox="0 0 32 32" fill="none" xmlns="http://www.w3.org/2000/svg">
<path d="M13.6056 2.57637L15.1912 1.00046C15.8625 0.333181 16.9481 0.333181 17.6123 1.00046L31.4965 14.7932C32.1678 15.4605 32.1678 16.5395 31.4965 17.1997L17.6123 30.9995C16.941 31.6668 15.8554 31.6668 15.1912 30.9995L13.6056 29.4236C12.9271 28.7493 12.9414 27.649 13.6342 26.9888L22.2404 18.8395H1.71409C0.7642 18.8395 0 18.0799 0 17.1358V14.8642C0 13.9201 0.7642 13.1605 1.71409 13.1605H22.2404L13.6342 5.01122C12.9343 4.35104 12.92 3.25074 13.6056 2.57637Z" fill="white"/>
</svg>
