<svg width="824" height="65" viewBox="0 0 824 65" fill="none" xmlns="http://www.w3.org/2000/svg">
<g clip-path="url(#clip0_2026_11346)">
<rect width="823.653" height="65" rx="19" fill="white"/>
<mask id="mask0_2026_11346" style="mask-type:luminance" maskUnits="userSpaceOnUse" x="0" y="0" width="824" height="65">
<rect x="0.5" y="0.5" width="822.653" height="64" rx="18.5" fill="white" stroke="white"/>
</mask>
<g mask="url(#mask0_2026_11346)">
<g opacity="0.502255">
<path fill-rule="evenodd" clip-rule="evenodd" d="M24.75 24.25C21.0221 24.25 18 27.2721 18 31C18 34.7279 21.0221 37.75 24.75 37.75C28.4779 37.75 31.5 34.7279 31.5 31C31.4998 27.2722 28.4778 24.2502 24.75 24.25Z" stroke="black" stroke-opacity="0.42" stroke-width="3"/>
<path d="M29.5 35.75L34.5 40.75" stroke="black" stroke-opacity="0.42" stroke-width="3" stroke-linecap="round"/>
</g>
<path d="M52.026 38.608C51.09 38.608 50.19 38.458 49.326 38.158C48.474 37.846 47.814 37.45 47.346 36.97L47.868 35.944C48.312 36.376 48.906 36.742 49.65 37.042C50.406 37.33 51.198 37.474 52.026 37.474C52.818 37.474 53.46 37.378 53.952 37.186C54.456 36.982 54.822 36.712 55.05 36.376C55.29 36.04 55.41 35.668 55.41 35.26C55.41 34.768 55.266 34.372 54.978 34.072C54.702 33.772 54.336 33.538 53.88 33.37C53.424 33.19 52.92 33.034 52.368 32.902C51.816 32.77 51.264 32.632 50.712 32.488C50.16 32.332 49.65 32.128 49.182 31.876C48.726 31.624 48.354 31.294 48.066 30.886C47.79 30.466 47.652 29.92 47.652 29.248C47.652 28.624 47.814 28.054 48.138 27.538C48.474 27.01 48.984 26.59 49.668 26.278C50.352 25.954 51.228 25.792 52.296 25.792C53.004 25.792 53.706 25.894 54.402 26.098C55.098 26.29 55.698 26.56 56.202 26.908L55.752 27.97C55.212 27.61 54.636 27.346 54.024 27.178C53.424 27.01 52.842 26.926 52.278 26.926C51.522 26.926 50.898 27.028 50.406 27.232C49.914 27.436 49.548 27.712 49.308 28.06C49.08 28.396 48.966 28.78 48.966 29.212C48.966 29.704 49.104 30.1 49.38 30.4C49.668 30.7 50.04 30.934 50.496 31.102C50.964 31.27 51.474 31.42 52.026 31.552C52.578 31.684 53.124 31.828 53.664 31.984C54.216 32.14 54.72 32.344 55.176 32.596C55.644 32.836 56.016 33.16 56.292 33.568C56.58 33.976 56.724 34.51 56.724 35.17C56.724 35.782 56.556 36.352 56.22 36.88C55.884 37.396 55.368 37.816 54.672 38.14C53.988 38.452 53.106 38.608 52.026 38.608ZM63.3702 38.59C62.3862 38.59 61.5222 38.386 60.7782 37.978C60.0342 37.558 59.4522 36.988 59.0322 36.268C58.6122 35.536 58.4022 34.702 58.4022 33.766C58.4022 32.83 58.6002 32.002 58.9962 31.282C59.4042 30.562 59.9562 29.998 60.6522 29.59C61.3602 29.17 62.1522 28.96 63.0282 28.96C63.9162 28.96 64.7022 29.164 65.3862 29.572C66.0822 29.968 66.6282 30.532 67.0242 31.264C67.4202 31.984 67.6182 32.818 67.6182 33.766C67.6182 33.826 67.6122 33.892 67.6002 33.964C67.6002 34.024 67.6002 34.09 67.6002 34.162H59.3742V33.208H66.9162L66.4122 33.586C66.4122 32.902 66.2622 32.296 65.9622 31.768C65.6742 31.228 65.2782 30.808 64.7742 30.508C64.2702 30.208 63.6882 30.058 63.0282 30.058C62.3802 30.058 61.7982 30.208 61.2822 30.508C60.7662 30.808 60.3642 31.228 60.0762 31.768C59.7882 32.308 59.6442 32.926 59.6442 33.622V33.82C59.6442 34.54 59.8002 35.176 60.1122 35.728C60.4362 36.268 60.8802 36.694 61.4442 37.006C62.0202 37.306 62.6742 37.456 63.4062 37.456C63.9822 37.456 64.5162 37.354 65.0082 37.15C65.5122 36.946 65.9442 36.634 66.3042 36.214L67.0242 37.042C66.6042 37.546 66.0762 37.93 65.4402 38.194C64.8162 38.458 64.1262 38.59 63.3702 38.59ZM75.8778 38.5V36.412L75.8238 36.07V32.578C75.8238 31.774 75.5958 31.156 75.1398 30.724C74.6958 30.292 74.0298 30.076 73.1418 30.076C72.5298 30.076 71.9478 30.178 71.3958 30.382C70.8438 30.586 70.3758 30.856 69.9918 31.192L69.4158 30.238C69.8958 29.83 70.4718 29.518 71.1438 29.302C71.8158 29.074 72.5238 28.96 73.2678 28.96C74.4918 28.96 75.4338 29.266 76.0938 29.878C76.7658 30.478 77.1018 31.396 77.1018 32.632V38.5H75.8778ZM72.6198 38.59C71.9118 38.59 71.2938 38.476 70.7658 38.248C70.2498 38.008 69.8538 37.684 69.5778 37.276C69.3018 36.856 69.1638 36.376 69.1638 35.836C69.1638 35.344 69.2778 34.9 69.5058 34.504C69.7458 34.096 70.1298 33.772 70.6578 33.532C71.1978 33.28 71.9178 33.154 72.8178 33.154H76.0758V34.108H72.8538C71.9418 34.108 71.3058 34.27 70.9458 34.594C70.5978 34.918 70.4238 35.32 70.4238 35.8C70.4238 36.34 70.6338 36.772 71.0538 37.096C71.4738 37.42 72.0618 37.582 72.8178 37.582C73.5378 37.582 74.1558 37.42 74.6718 37.096C75.1998 36.76 75.5838 36.28 75.8238 35.656L76.1118 36.538C75.8718 37.162 75.4518 37.66 74.8518 38.032C74.2638 38.404 73.5198 38.59 72.6198 38.59ZM80.573 38.5V29.05H81.797V31.624L81.671 31.174C81.935 30.454 82.379 29.908 83.003 29.536C83.627 29.152 84.401 28.96 85.325 28.96V30.202C85.277 30.202 85.229 30.202 85.181 30.202C85.133 30.19 85.085 30.184 85.037 30.184C84.041 30.184 83.261 30.49 82.697 31.102C82.133 31.702 81.851 32.56 81.851 33.676V38.5H80.573ZM91.4931 38.59C90.5571 38.59 89.7171 38.386 88.9731 37.978C88.2411 37.558 87.6651 36.988 87.2451 36.268C86.8251 35.536 86.6151 34.702 86.6151 33.766C86.6151 32.818 86.8251 31.984 87.2451 31.264C87.6651 30.544 88.2411 29.98 88.9731 29.572C89.7171 29.164 90.5571 28.96 91.4931 28.96C92.2971 28.96 93.0231 29.116 93.6711 29.428C94.3191 29.74 94.8291 30.208 95.2011 30.832L94.2471 31.48C93.9231 31 93.5211 30.646 93.0411 30.418C92.5611 30.19 92.0391 30.076 91.4751 30.076C90.8031 30.076 90.1971 30.232 89.6571 30.544C89.1171 30.844 88.6911 31.27 88.3791 31.822C88.0671 32.374 87.9111 33.022 87.9111 33.766C87.9111 34.51 88.0671 35.158 88.3791 35.71C88.6911 36.262 89.1171 36.694 89.6571 37.006C90.1971 37.306 90.8031 37.456 91.4751 37.456C92.0391 37.456 92.5611 37.342 93.0411 37.114C93.5211 36.886 93.9231 36.538 94.2471 36.07L95.2011 36.718C94.8291 37.33 94.3191 37.798 93.6711 38.122C93.0231 38.434 92.2971 38.59 91.4931 38.59ZM102.395 28.96C103.163 28.96 103.835 29.11 104.411 29.41C104.999 29.698 105.455 30.142 105.779 30.742C106.115 31.342 106.283 32.098 106.283 33.01V38.5H105.005V33.136C105.005 32.14 104.753 31.39 104.249 30.886C103.757 30.37 103.061 30.112 102.161 30.112C101.489 30.112 100.901 30.25 100.397 30.526C99.9051 30.79 99.5211 31.18 99.2451 31.696C98.9811 32.2 98.8491 32.812 98.8491 33.532V38.5H97.5711V25.144H98.8491V31.642L98.5971 31.156C98.8971 30.472 99.3771 29.938 100.037 29.554C100.697 29.158 101.483 28.96 102.395 28.96ZM114.662 38.5V27.862C114.662 27.022 114.908 26.344 115.4 25.828C115.892 25.312 116.6 25.054 117.524 25.054C117.884 25.054 118.232 25.102 118.568 25.198C118.904 25.294 119.186 25.444 119.414 25.648L118.982 26.602C118.802 26.446 118.592 26.332 118.352 26.26C118.112 26.176 117.854 26.134 117.578 26.134C117.038 26.134 116.624 26.284 116.336 26.584C116.048 26.884 115.904 27.328 115.904 27.916V29.356L115.94 29.95V38.5H114.662ZM112.97 30.112V29.05H118.82V30.112H112.97ZM124.239 38.59C123.327 38.59 122.505 38.386 121.773 37.978C121.053 37.558 120.483 36.988 120.063 36.268C119.643 35.536 119.433 34.702 119.433 33.766C119.433 32.818 119.643 31.984 120.063 31.264C120.483 30.544 121.053 29.98 121.773 29.572C122.493 29.164 123.315 28.96 124.239 28.96C125.175 28.96 126.003 29.164 126.723 29.572C127.455 29.98 128.025 30.544 128.433 31.264C128.853 31.984 129.063 32.818 129.063 33.766C129.063 34.702 128.853 35.536 128.433 36.268C128.025 36.988 127.455 37.558 126.723 37.978C125.991 38.386 125.163 38.59 124.239 38.59ZM124.239 37.456C124.923 37.456 125.529 37.306 126.057 37.006C126.585 36.694 126.999 36.262 127.299 35.71C127.611 35.146 127.767 34.498 127.767 33.766C127.767 33.022 127.611 32.374 127.299 31.822C126.999 31.27 126.585 30.844 126.057 30.544C125.529 30.232 124.929 30.076 124.257 30.076C123.585 30.076 122.985 30.232 122.457 30.544C121.929 30.844 121.509 31.27 121.197 31.822C120.885 32.374 120.729 33.022 120.729 33.766C120.729 34.498 120.885 35.146 121.197 35.71C121.509 36.262 121.929 36.694 122.457 37.006C122.985 37.306 123.579 37.456 124.239 37.456ZM131.673 38.5V29.05H132.897V31.624L132.771 31.174C133.035 30.454 133.479 29.908 134.103 29.536C134.727 29.152 135.501 28.96 136.425 28.96V30.202C136.377 30.202 136.329 30.202 136.281 30.202C136.233 30.19 136.185 30.184 136.137 30.184C135.141 30.184 134.361 30.49 133.797 31.102C133.233 31.702 132.951 32.56 132.951 33.676V38.5H131.673ZM146.596 38.59C145.708 38.59 145.024 38.35 144.544 37.87C144.064 37.39 143.824 36.712 143.824 35.836V26.962H145.102V35.764C145.102 36.316 145.24 36.742 145.516 37.042C145.804 37.342 146.212 37.492 146.74 37.492C147.304 37.492 147.772 37.33 148.144 37.006L148.594 37.924C148.342 38.152 148.036 38.32 147.676 38.428C147.328 38.536 146.968 38.59 146.596 38.59ZM142.132 30.112V29.05H147.982V30.112H142.132ZM156.843 38.5V36.412L156.789 36.07V32.578C156.789 31.774 156.561 31.156 156.105 30.724C155.661 30.292 154.995 30.076 154.107 30.076C153.495 30.076 152.913 30.178 152.361 30.382C151.809 30.586 151.341 30.856 150.957 31.192L150.381 30.238C150.861 29.83 151.437 29.518 152.109 29.302C152.781 29.074 153.489 28.96 154.233 28.96C155.457 28.96 156.399 29.266 157.059 29.878C157.731 30.478 158.067 31.396 158.067 32.632V38.5H156.843ZM153.585 38.59C152.877 38.59 152.259 38.476 151.731 38.248C151.215 38.008 150.819 37.684 150.543 37.276C150.267 36.856 150.129 36.376 150.129 35.836C150.129 35.344 150.243 34.9 150.471 34.504C150.711 34.096 151.095 33.772 151.623 33.532C152.163 33.28 152.883 33.154 153.783 33.154H157.041V34.108H153.819C152.907 34.108 152.271 34.27 151.911 34.594C151.563 34.918 151.389 35.32 151.389 35.8C151.389 36.34 151.599 36.772 152.019 37.096C152.439 37.42 153.027 37.582 153.783 37.582C154.503 37.582 155.121 37.42 155.637 37.096C156.165 36.76 156.549 36.28 156.789 35.656L157.077 36.538C156.837 37.162 156.417 37.66 155.817 38.032C155.229 38.404 154.485 38.59 153.585 38.59ZM166.362 28.96C167.13 28.96 167.802 29.11 168.378 29.41C168.966 29.698 169.422 30.142 169.746 30.742C170.082 31.342 170.25 32.098 170.25 33.01V38.5H168.972V33.136C168.972 32.14 168.72 31.39 168.216 30.886C167.724 30.37 167.028 30.112 166.128 30.112C165.456 30.112 164.868 30.25 164.364 30.526C163.872 30.79 163.488 31.18 163.212 31.696C162.948 32.2 162.816 32.812 162.816 33.532V38.5H161.538V29.05H162.762V31.642L162.564 31.156C162.864 30.472 163.344 29.938 164.004 29.554C164.664 29.158 165.45 28.96 166.362 28.96ZM177.734 42.082C176.87 42.082 176.042 41.956 175.25 41.704C174.458 41.452 173.816 41.092 173.324 40.624L173.972 39.652C174.416 40.048 174.962 40.36 175.61 40.588C176.27 40.828 176.966 40.948 177.698 40.948C178.898 40.948 179.78 40.666 180.344 40.102C180.908 39.55 181.19 38.686 181.19 37.51V35.152L181.37 33.532L181.244 31.912V29.05H182.468V37.348C182.468 38.98 182.066 40.174 181.262 40.93C180.47 41.698 179.294 42.082 177.734 42.082ZM177.5 38.14C176.6 38.14 175.79 37.948 175.07 37.564C174.35 37.168 173.78 36.622 173.36 35.926C172.952 35.23 172.748 34.432 172.748 33.532C172.748 32.632 172.952 31.84 173.36 31.156C173.78 30.46 174.35 29.92 175.07 29.536C175.79 29.152 176.6 28.96 177.5 28.96C178.34 28.96 179.096 29.134 179.768 29.482C180.44 29.83 180.974 30.346 181.37 31.03C181.766 31.714 181.964 32.548 181.964 33.532C181.964 34.516 181.766 35.35 181.37 36.034C180.974 36.718 180.44 37.24 179.768 37.6C179.096 37.96 178.34 38.14 177.5 38.14ZM177.626 37.006C178.322 37.006 178.94 36.862 179.48 36.574C180.02 36.274 180.446 35.866 180.758 35.35C181.07 34.822 181.226 34.216 181.226 33.532C181.226 32.848 181.07 32.248 180.758 31.732C180.446 31.216 180.02 30.814 179.48 30.526C178.94 30.226 178.322 30.076 177.626 30.076C176.942 30.076 176.324 30.226 175.772 30.526C175.232 30.814 174.806 31.216 174.494 31.732C174.194 32.248 174.044 32.848 174.044 33.532C174.044 34.216 174.194 34.822 174.494 35.35C174.806 35.866 175.232 36.274 175.772 36.574C176.324 36.862 176.942 37.006 177.626 37.006ZM189.876 38.59C188.964 38.59 188.142 38.386 187.41 37.978C186.69 37.558 186.12 36.988 185.7 36.268C185.28 35.536 185.07 34.702 185.07 33.766C185.07 32.818 185.28 31.984 185.7 31.264C186.12 30.544 186.69 29.98 187.41 29.572C188.13 29.164 188.952 28.96 189.876 28.96C190.812 28.96 191.64 29.164 192.36 29.572C193.092 29.98 193.662 30.544 194.07 31.264C194.49 31.984 194.7 32.818 194.7 33.766C194.7 34.702 194.49 35.536 194.07 36.268C193.662 36.988 193.092 37.558 192.36 37.978C191.628 38.386 190.8 38.59 189.876 38.59ZM189.876 37.456C190.56 37.456 191.166 37.306 191.694 37.006C192.222 36.694 192.636 36.262 192.936 35.71C193.248 35.146 193.404 34.498 193.404 33.766C193.404 33.022 193.248 32.374 192.936 31.822C192.636 31.27 192.222 30.844 191.694 30.544C191.166 30.232 190.566 30.076 189.894 30.076C189.222 30.076 188.622 30.232 188.094 30.544C187.566 30.844 187.146 31.27 186.834 31.822C186.522 32.374 186.366 33.022 186.366 33.766C186.366 34.498 186.522 35.146 186.834 35.71C187.146 36.262 187.566 36.694 188.094 37.006C188.622 37.306 189.216 37.456 189.876 37.456ZM199.847 38.59C199.067 38.59 198.329 38.482 197.633 38.266C196.937 38.038 196.391 37.756 195.995 37.42L196.571 36.412C196.955 36.7 197.447 36.952 198.047 37.168C198.647 37.372 199.277 37.474 199.937 37.474C200.837 37.474 201.485 37.336 201.881 37.06C202.277 36.772 202.475 36.394 202.475 35.926C202.475 35.578 202.361 35.308 202.133 35.116C201.917 34.912 201.629 34.762 201.269 34.666C200.909 34.558 200.507 34.468 200.063 34.396C199.619 34.324 199.175 34.24 198.731 34.144C198.299 34.048 197.903 33.91 197.543 33.73C197.183 33.538 196.889 33.28 196.661 32.956C196.445 32.632 196.337 32.2 196.337 31.66C196.337 31.144 196.481 30.682 196.769 30.274C197.057 29.866 197.477 29.548 198.029 29.32C198.593 29.08 199.277 28.96 200.081 28.96C200.693 28.96 201.305 29.044 201.917 29.212C202.529 29.368 203.033 29.578 203.429 29.842L202.871 30.868C202.451 30.58 202.001 30.376 201.521 30.256C201.041 30.124 200.561 30.058 200.081 30.058C199.229 30.058 198.599 30.208 198.191 30.508C197.795 30.796 197.597 31.168 197.597 31.624C197.597 31.984 197.705 32.266 197.921 32.47C198.149 32.674 198.443 32.836 198.803 32.956C199.175 33.064 199.577 33.154 200.009 33.226C200.453 33.298 200.891 33.388 201.323 33.496C201.767 33.592 202.169 33.73 202.529 33.91C202.901 34.078 203.195 34.324 203.411 34.648C203.639 34.96 203.753 35.374 203.753 35.89C203.753 36.442 203.597 36.922 203.285 37.33C202.985 37.726 202.541 38.038 201.953 38.266C201.377 38.482 200.675 38.59 199.847 38.59ZM206.224 38.59C205.96 38.59 205.732 38.494 205.54 38.302C205.36 38.11 205.27 37.876 205.27 37.6C205.27 37.312 205.36 37.078 205.54 36.898C205.732 36.718 205.96 36.628 206.224 36.628C206.488 36.628 206.71 36.718 206.89 36.898C207.082 37.078 207.178 37.312 207.178 37.6C207.178 37.876 207.082 38.11 206.89 38.302C206.71 38.494 206.488 38.59 206.224 38.59ZM210.039 38.59C209.775 38.59 209.547 38.494 209.355 38.302C209.175 38.11 209.085 37.876 209.085 37.6C209.085 37.312 209.175 37.078 209.355 36.898C209.547 36.718 209.775 36.628 210.039 36.628C210.303 36.628 210.525 36.718 210.705 36.898C210.897 37.078 210.993 37.312 210.993 37.6C210.993 37.876 210.897 38.11 210.705 38.302C210.525 38.494 210.303 38.59 210.039 38.59ZM213.853 38.59C213.589 38.59 213.361 38.494 213.169 38.302C212.989 38.11 212.899 37.876 212.899 37.6C212.899 37.312 212.989 37.078 213.169 36.898C213.361 36.718 213.589 36.628 213.853 36.628C214.117 36.628 214.339 36.718 214.519 36.898C214.711 37.078 214.807 37.312 214.807 37.6C214.807 37.876 214.711 38.11 214.519 38.302C214.339 38.494 214.117 38.59 213.853 38.59Z" fill="#AEAEAE"/>
</g>
</g>
<rect x="0.5" y="0.5" width="822.653" height="64" rx="18.5" stroke="#651FFF"/>
<defs>
<clipPath id="clip0_2026_11346">
<rect width="823.653" height="65" rx="19" fill="white"/>
</clipPath>
</defs>
</svg>
